<svg width="205" height="135" viewBox="0 0 205 135" fill="none" xmlns="http://www.w3.org/2000/svg">
<g clip-path="url(#clip0_102_18)">
<path fill-rule="evenodd" clip-rule="evenodd" d="M46.1562 0C48.0697 0 49.9071 0.612342 51.3916 1.95117L51.6836 2.22852L51.957 2.51562C53.2401 3.93402 53.8748 5.68407 53.9082 7.54492C54.8564 7.20663 55.8676 7.02152 56.9336 7.02148C58.847 7.02148 60.6845 7.6348 62.1689 8.97363L62.4609 9.25098L62.7344 9.53809C64.0529 10.9958 64.6894 12.8042 64.6895 14.7227C64.6894 15.0454 64.6675 15.3643 64.6318 15.6787C65.0804 15.0955 65.597 14.5589 66.1748 14.0723L66.1885 14.0615L66.2012 14.0498C67.9 12.6439 69.9404 11.7959 72.2295 11.7959C73.8934 11.7959 75.4723 12.2779 76.8145 13.2646C78.6045 12.0776 80.6224 11.4072 82.8018 11.4072C84.7684 11.4073 86.6326 12.0698 88.1289 13.4688C88.1335 13.473 88.139 13.4782 88.1436 13.4824C88.1514 13.4898 88.1601 13.4974 88.168 13.5049C88.3961 13.7183 88.6041 13.9432 88.7979 14.1748C91.8447 12.331 95.2602 11.4072 98.9609 11.4072C102.956 11.4072 106.59 12.5201 109.42 15.124C109.834 15.5023 110.217 15.8995 110.568 16.3115C111.108 15.479 111.778 14.73 112.559 14.0723L112.572 14.0615L112.585 14.0498C114.284 12.6439 116.324 11.7959 118.613 11.7959C120.168 11.7959 121.68 12.2123 123 13.1143C125.015 11.9803 127.303 11.4073 129.797 11.4072C133.049 11.4072 136.119 12.3289 138.448 14.6465C139.215 15.4027 139.829 16.241 140.31 17.1396C140.805 16.6457 141.332 16.1722 141.892 15.7197L141.901 15.7109C145.468 12.8439 149.641 11.4072 154.257 11.4072C158.251 11.4073 161.885 12.5203 164.715 15.124C165.341 15.696 165.896 16.3091 166.38 16.957C166.837 16.4314 167.338 15.9287 167.885 15.4521C171.135 12.6152 175.316 11.4072 179.974 11.4072C181.756 11.4072 183.526 11.6686 185.272 12.1729L185.287 12.1768C187.151 12.7108 188.862 13.5445 190.346 14.7314C191.536 15.6736 192.611 16.9581 193.109 18.584C194.095 18.7109 195.076 18.9143 196.05 19.1953L196.064 19.1992C197.928 19.7333 199.639 20.567 201.123 21.7539C202.76 23.0488 204.183 24.9893 204.183 27.5762C204.182 29.8457 203.234 31.7943 201.73 33.2979C201.463 33.5657 201.18 33.8128 200.887 34.04C202.451 35.8698 203.181 38.1222 203.181 40.541C203.181 45.0364 201.374 48.862 197.873 51.6729L197.871 51.6748C194.818 54.122 191.03 55.3111 186.804 55.541V55.5859H28.8379V55.5605C28.4973 55.5754 28.1553 55.5859 27.8115 55.5859C23.1559 55.5859 18.9943 54.2676 15.8857 51.1592C15.0105 50.2839 14.2747 49.3308 13.6689 48.3115C10.3787 47.7979 7.44575 46.474 5.1084 44.1367C2.04778 41.076 0.681739 37.0698 0.681641 32.5723C0.681671 31.0151 0.837179 29.4794 1.15039 27.9707L2.87012 19.3174C3.93126 13.8601 6.43036 9.25194 10.4199 5.69043L10.4287 5.68262C14.4886 2.07896 19.3747 0.278364 24.8799 0.27832C28.7677 0.27832 32.3328 1.24405 35.3594 3.37012L35.3584 3.37109C36.2021 3.95858 36.9623 4.60997 37.6348 5.32227C38.2295 4.16917 39.0593 3.15847 40.0742 2.30371C41.7811 0.863298 43.8409 8.81841e-05 46.1562 0Z" fill="white"/>
<g filter="url(#filter0_i_102_18)">
<path d="M5.23813 28.5361L6.96307 19.8558C7.87191 15.1817 9.9678 11.3795 13.2507 8.44892C16.5522 5.51839 20.4843 4.05312 25.0471 4.05312C28.2558 4.05312 30.9823 4.84139 33.2266 6.41795C35.4709 7.97595 36.8249 10.0626 37.2886 12.6778C37.3442 12.956 37.372 13.2342 37.372 13.5124C37.372 14.9963 36.7599 16.3039 35.5358 17.4353C34.3302 18.5667 32.9855 19.1324 31.5017 19.1324C30.3146 19.1324 29.3872 18.882 28.7195 18.3812C28.0703 17.8619 27.6067 17.0551 27.3284 15.9607C26.7906 13.8092 25.4366 12.7334 23.2665 12.7334C21.7085 12.7334 20.3452 13.3919 19.1767 14.7088C18.0082 16.0071 17.1829 17.9453 16.7006 20.5235L15.3095 27.8684C15.087 29.0369 14.9757 30.057 14.9757 30.9287C14.9757 32.5053 15.3003 33.6923 15.9494 34.4899C16.6171 35.2689 17.5538 35.6584 18.7594 35.6584C20.9851 35.6584 22.7843 34.5826 24.1568 32.4311C24.843 31.3368 25.6128 30.5392 26.466 30.0384C27.3192 29.5191 28.3486 29.2594 29.5542 29.2594C30.7041 29.2594 31.6501 29.6304 32.392 30.3723C33.1524 31.0957 33.5326 32.0138 33.5326 33.1266C33.5326 33.9984 33.2823 34.8608 32.7815 35.714C31.2976 38.3293 29.1276 40.4251 26.2712 42.0017C23.4334 43.5597 20.4101 44.3387 17.2014 44.3387C13.3064 44.3387 10.2738 43.2537 8.10375 41.0836C5.93367 38.9135 4.84863 36.0015 4.84863 32.3476C4.84863 31.0493 4.97847 29.7788 5.23813 28.5361Z" fill="white"/>
<path d="M5.23813 28.5361L6.96307 19.8558C7.87191 15.1817 9.9678 11.3795 13.2507 8.44892C16.5522 5.51839 20.4843 4.05312 25.0471 4.05312C28.2558 4.05312 30.9823 4.84139 33.2266 6.41795C35.4709 7.97595 36.8249 10.0626 37.2886 12.6778C37.3442 12.956 37.372 13.2342 37.372 13.5124C37.372 14.9963 36.7599 16.3039 35.5358 17.4353C34.3302 18.5667 32.9855 19.1324 31.5017 19.1324C30.3146 19.1324 29.3872 18.882 28.7195 18.3812C28.0703 17.8619 27.6067 17.0551 27.3284 15.9607C26.7906 13.8092 25.4366 12.7334 23.2665 12.7334C21.7085 12.7334 20.3452 13.3919 19.1767 14.7088C18.0082 16.0071 17.1829 17.9453 16.7006 20.5235L15.3095 27.8684C15.087 29.0369 14.9757 30.057 14.9757 30.9287C14.9757 32.5053 15.3003 33.6923 15.9494 34.4899C16.6171 35.2689 17.5538 35.6584 18.7594 35.6584C20.9851 35.6584 22.7843 34.5826 24.1568 32.4311C24.843 31.3368 25.6128 30.5392 26.466 30.0384C27.3192 29.5191 28.3486 29.2594 29.5542 29.2594C30.7041 29.2594 31.6501 29.6304 32.392 30.3723C33.1524 31.0957 33.5326 32.0138 33.5326 33.1266C33.5326 33.9984 33.2823 34.8608 32.7815 35.714C31.2976 38.3293 29.1276 40.4251 26.2712 42.0017C23.4334 43.5597 20.4101 44.3387 17.2014 44.3387C13.3064 44.3387 10.2738 43.2537 8.10375 41.0836C5.93367 38.9135 4.84863 36.0015 4.84863 32.3476C4.84863 31.0493 4.97847 29.7788 5.23813 28.5361Z" fill="url(#paint0_linear_102_18)"/>
<path d="M34.8055 39.3865L40.8706 8.33763C41.1117 7.09494 41.7609 6.02845 42.8181 5.13816C43.8939 4.22932 45.0624 3.7749 46.3236 3.7749C47.4179 3.7749 48.3175 4.12731 49.0223 4.83212C49.7271 5.53693 50.0795 6.41795 50.0795 7.47516C50.0795 7.75338 50.0517 8.04087 49.996 8.33763L48.1042 18.1865C49.996 16.1833 52.3701 15.1817 55.2265 15.1817C57.7304 15.1817 59.6779 15.8773 61.069 17.2683C62.4601 18.6409 63.1556 20.5884 63.1556 23.1109C63.1556 24.131 63.0536 25.1418 62.8496 26.1434L60.2344 39.3865C59.9747 40.6477 59.3163 41.7235 58.259 42.6138C57.2204 43.5041 56.0797 43.9492 54.837 43.9492C53.7241 43.9492 52.806 43.5875 52.0827 42.8642C51.3778 42.1408 51.0254 41.2505 51.0254 40.1933C51.0254 39.9336 51.0533 39.6647 51.1089 39.3865L53.5572 26.8668C53.6685 26.3474 53.7241 25.8745 53.7241 25.4479C53.7241 24.4834 53.4645 23.76 52.9451 23.2778C52.4443 22.777 51.7395 22.5266 50.8307 22.5266C49.2727 22.5266 47.9002 23.3984 46.7131 25.1418L43.9309 39.3865C43.6713 40.6477 43.0128 41.7235 41.9556 42.6138C40.9169 43.5041 39.7763 43.9492 38.5336 43.9492C37.4207 43.9492 36.5026 43.5875 35.7792 42.8642C35.0744 42.1408 34.722 41.2505 34.722 40.1933C34.722 39.9336 34.7498 39.6647 34.8055 39.3865Z" fill="white"/>
<path d="M34.8055 39.3865L40.8706 8.33763C41.1117 7.09494 41.7609 6.02845 42.8181 5.13816C43.8939 4.22932 45.0624 3.7749 46.3236 3.7749C47.4179 3.7749 48.3175 4.12731 49.0223 4.83212C49.7271 5.53693 50.0795 6.41795 50.0795 7.47516C50.0795 7.75338 50.0517 8.04087 49.996 8.33763L48.1042 18.1865C49.996 16.1833 52.3701 15.1817 55.2265 15.1817C57.7304 15.1817 59.6779 15.8773 61.069 17.2683C62.4601 18.6409 63.1556 20.5884 63.1556 23.1109C63.1556 24.131 63.0536 25.1418 62.8496 26.1434L60.2344 39.3865C59.9747 40.6477 59.3163 41.7235 58.259 42.6138C57.2204 43.5041 56.0797 43.9492 54.837 43.9492C53.7241 43.9492 52.806 43.5875 52.0827 42.8642C51.3778 42.1408 51.0254 41.2505 51.0254 40.1933C51.0254 39.9336 51.0533 39.6647 51.1089 39.3865L53.5572 26.8668C53.6685 26.3474 53.7241 25.8745 53.7241 25.4479C53.7241 24.4834 53.4645 23.76 52.9451 23.2778C52.4443 22.777 51.7395 22.5266 50.8307 22.5266C49.2727 22.5266 47.9002 23.3984 46.7131 25.1418L43.9309 39.3865C43.6713 40.6477 43.0128 41.7235 41.9556 42.6138C40.9169 43.5041 39.7763 43.9492 38.5336 43.9492C37.4207 43.9492 36.5026 43.5875 35.7792 42.8642C35.0744 42.1408 34.722 41.2505 34.722 40.1933C34.722 39.9336 34.7498 39.6647 34.8055 39.3865Z" fill="url(#paint1_linear_102_18)"/>
<path d="M81.2435 24.1959C78.3501 24.1959 76.1429 25.3088 74.622 27.5345L72.285 39.3865C72.0253 40.6477 71.3669 41.7235 70.3097 42.6138C69.271 43.5041 68.1303 43.9492 66.8876 43.9492C65.7748 43.9492 64.8567 43.5875 64.1333 42.8642C63.4285 42.1408 63.0761 41.2505 63.0761 40.1933C63.0761 39.9336 63.1039 39.6647 63.1595 39.3865L66.9433 20.134C67.2029 18.8727 67.8614 17.797 68.9186 16.9067C69.9944 16.0164 71.1536 15.5712 72.3963 15.5712C73.435 15.5712 74.3067 15.9144 75.0115 16.6006C75.7349 17.2683 76.0966 18.1401 76.0966 19.2159C76.0966 19.4941 76.0687 19.7816 76.0131 20.0783C76.8477 18.4832 77.8771 17.2684 79.1013 16.4337C80.3254 15.5991 81.6145 15.1817 82.9685 15.1817C84.0072 15.1817 84.8789 15.5156 85.5837 16.1833C86.3071 16.851 86.6687 17.7135 86.6687 18.7707C86.6687 20.2731 86.0938 21.5529 84.9438 22.6101C83.8124 23.6673 82.579 24.1959 81.2435 24.1959Z" fill="white"/>
<path d="M81.2435 24.1959C78.3501 24.1959 76.1429 25.3088 74.622 27.5345L72.285 39.3865C72.0253 40.6477 71.3669 41.7235 70.3097 42.6138C69.271 43.5041 68.1303 43.9492 66.8876 43.9492C65.7748 43.9492 64.8567 43.5875 64.1333 42.8642C63.4285 42.1408 63.0761 41.2505 63.0761 40.1933C63.0761 39.9336 63.1039 39.6647 63.1595 39.3865L66.9433 20.134C67.2029 18.8727 67.8614 17.797 68.9186 16.9067C69.9944 16.0164 71.1536 15.5712 72.3963 15.5712C73.435 15.5712 74.3067 15.9144 75.0115 16.6006C75.7349 17.2683 76.0966 18.1401 76.0966 19.2159C76.0966 19.4941 76.0687 19.7816 76.0131 20.0783C76.8477 18.4832 77.8771 17.2684 79.1013 16.4337C80.3254 15.5991 81.6145 15.1817 82.9685 15.1817C84.0072 15.1817 84.8789 15.5156 85.5837 16.1833C86.3071 16.851 86.6687 17.7135 86.6687 18.7707C86.6687 20.2731 86.0938 21.5529 84.9438 22.6101C83.8124 23.6673 82.579 24.1959 81.2435 24.1959Z" fill="url(#paint2_linear_102_18)"/>
<path d="M99.4619 32.0972L100.352 27.4232C100.463 26.8111 100.519 26.2547 100.519 25.7539C100.519 24.6782 100.259 23.8713 99.7401 23.3334C99.2393 22.7956 98.553 22.5266 97.6813 22.5266C96.587 22.5266 95.6318 22.9347 94.8157 23.7508C93.9996 24.5483 93.4339 25.7725 93.1186 27.4232L92.2283 32.0972C92.0984 32.8391 92.0335 33.4048 92.0335 33.7943C92.0335 34.8701 92.2839 35.6769 92.7847 36.2148C93.304 36.7342 94.0088 36.9938 94.8991 36.9938C95.9935 36.9938 96.9487 36.595 97.7648 35.7975C98.5809 34.9814 99.1466 33.748 99.4619 32.0972ZM109.533 27.2006L108.532 32.3198C107.864 35.7697 106.111 38.6353 103.273 40.9167C100.454 43.198 97.1805 44.3387 93.4524 44.3387C90.2066 44.3387 87.6192 43.4577 85.6902 41.6957C83.7612 39.9151 82.7968 37.6059 82.7968 34.7681C82.7968 33.9706 82.8802 33.1545 83.0472 32.3198L84.0487 27.2006C84.7165 23.7508 86.4599 20.8852 89.2792 18.6038C92.117 16.3224 95.3999 15.1817 99.128 15.1817C102.374 15.1817 104.961 16.072 106.89 17.8526C108.819 19.6146 109.784 21.9145 109.784 24.7523C109.784 25.5499 109.7 26.366 109.533 27.2006Z" fill="white"/>
<path d="M99.4619 32.0972L100.352 27.4232C100.463 26.8111 100.519 26.2547 100.519 25.7539C100.519 24.6782 100.259 23.8713 99.7401 23.3334C99.2393 22.7956 98.553 22.5266 97.6813 22.5266C96.587 22.5266 95.6318 22.9347 94.8157 23.7508C93.9996 24.5483 93.4339 25.7725 93.1186 27.4232L92.2283 32.0972C92.0984 32.8391 92.0335 33.4048 92.0335 33.7943C92.0335 34.8701 92.2839 35.6769 92.7847 36.2148C93.304 36.7342 94.0088 36.9938 94.8991 36.9938C95.9935 36.9938 96.9487 36.595 97.7648 35.7975C98.5809 34.9814 99.1466 33.748 99.4619 32.0972ZM109.533 27.2006L108.532 32.3198C107.864 35.7697 106.111 38.6353 103.273 40.9167C100.454 43.198 97.1805 44.3387 93.4524 44.3387C90.2066 44.3387 87.6192 43.4577 85.6902 41.6957C83.7612 39.9151 82.7968 37.6059 82.7968 34.7681C82.7968 33.9706 82.8802 33.1545 83.0472 32.3198L84.0487 27.2006C84.7165 23.7508 86.4599 20.8852 89.2792 18.6038C92.117 16.3224 95.3999 15.1817 99.128 15.1817C102.374 15.1817 104.961 16.072 106.89 17.8526C108.819 19.6146 109.784 21.9145 109.784 24.7523C109.784 25.5499 109.7 26.366 109.533 27.2006Z" fill="url(#paint3_linear_102_18)"/>
<path d="M109.543 39.3865L113.327 20.134C113.587 18.8727 114.245 17.797 115.302 16.9067C116.378 16.0164 117.537 15.5712 118.78 15.5712C119.745 15.5712 120.561 15.8587 121.228 16.4337C121.896 16.9901 122.304 17.7228 122.452 18.6316C124.381 16.3317 126.885 15.1817 129.964 15.1817C132.468 15.1817 134.416 15.8773 135.807 17.2683C137.198 18.6409 137.893 20.5884 137.893 23.1109C137.893 24.131 137.791 25.1418 137.587 26.1434L134.972 39.3865C134.713 40.6477 134.054 41.7235 132.997 42.6138C131.958 43.5041 130.817 43.9492 129.575 43.9492C128.462 43.9492 127.544 43.5875 126.82 42.8642C126.116 42.1408 125.763 41.2505 125.763 40.1933C125.763 39.9336 125.791 39.6647 125.847 39.3865L128.295 26.8668C128.406 26.3474 128.462 25.8745 128.462 25.4479C128.462 24.4834 128.202 23.76 127.683 23.2778C127.182 22.777 126.477 22.5266 125.568 22.5266C124.01 22.5266 122.638 23.3984 121.451 25.1418L118.669 39.3865C118.409 40.6477 117.751 41.7235 116.693 42.6138C115.655 43.5041 114.514 43.9492 113.271 43.9492C112.159 43.9492 111.24 43.5875 110.517 42.8642C109.812 42.1408 109.46 41.2505 109.46 40.1933C109.46 39.9336 109.488 39.6647 109.543 39.3865Z" fill="white"/>
<path d="M109.543 39.3865L113.327 20.134C113.587 18.8727 114.245 17.797 115.302 16.9067C116.378 16.0164 117.537 15.5712 118.78 15.5712C119.745 15.5712 120.561 15.8587 121.228 16.4337C121.896 16.9901 122.304 17.7228 122.452 18.6316C124.381 16.3317 126.885 15.1817 129.964 15.1817C132.468 15.1817 134.416 15.8773 135.807 17.2683C137.198 18.6409 137.893 20.5884 137.893 23.1109C137.893 24.131 137.791 25.1418 137.587 26.1434L134.972 39.3865C134.713 40.6477 134.054 41.7235 132.997 42.6138C131.958 43.5041 130.817 43.9492 129.575 43.9492C128.462 43.9492 127.544 43.5875 126.82 42.8642C126.116 42.1408 125.763 41.2505 125.763 40.1933C125.763 39.9336 125.791 39.6647 125.847 39.3865L128.295 26.8668C128.406 26.3474 128.462 25.8745 128.462 25.4479C128.462 24.4834 128.202 23.76 127.683 23.2778C127.182 22.777 126.477 22.5266 125.568 22.5266C124.01 22.5266 122.638 23.3984 121.451 25.1418L118.669 39.3865C118.409 40.6477 117.751 41.7235 116.693 42.6138C115.655 43.5041 114.514 43.9492 113.271 43.9492C112.159 43.9492 111.24 43.5875 110.517 42.8642C109.812 42.1408 109.46 41.2505 109.46 40.1933C109.46 39.9336 109.488 39.6647 109.543 39.3865Z" fill="url(#paint4_linear_102_18)"/>
<path d="M154.757 32.0972L155.647 27.4232C155.759 26.8111 155.814 26.2547 155.814 25.7539C155.814 24.6782 155.555 23.8713 155.035 23.3334C154.535 22.7956 153.848 22.5266 152.977 22.5266C151.882 22.5266 150.927 22.9347 150.111 23.7508C149.295 24.5483 148.729 25.7725 148.414 27.4232L147.524 32.0972C147.394 32.8391 147.329 33.4048 147.329 33.7943C147.329 34.8701 147.579 35.6769 148.08 36.2148C148.599 36.7342 149.304 36.9938 150.194 36.9938C151.289 36.9938 152.244 36.595 153.06 35.7975C153.876 34.9814 154.442 33.748 154.757 32.0972ZM164.829 27.2006L163.827 32.3198C163.159 35.7697 161.407 38.6353 158.569 40.9167C155.75 43.198 152.476 44.3387 148.748 44.3387C145.502 44.3387 142.914 43.4577 140.986 41.6957C139.057 39.9151 138.092 37.6059 138.092 34.7681C138.092 33.9706 138.176 33.1545 138.342 32.3198L139.344 27.2006C140.012 23.7508 141.755 20.8852 144.575 18.6038C147.412 16.3224 150.695 15.1817 154.423 15.1817C157.669 15.1817 160.257 16.072 162.186 17.8526C164.115 19.6146 165.079 21.9145 165.079 24.7523C165.079 25.5499 164.996 26.366 164.829 27.2006Z" fill="white"/>
<path d="M154.757 32.0972L155.647 27.4232C155.759 26.8111 155.814 26.2547 155.814 25.7539C155.814 24.6782 155.555 23.8713 155.035 23.3334C154.535 22.7956 153.848 22.5266 152.977 22.5266C151.882 22.5266 150.927 22.9347 150.111 23.7508C149.295 24.5483 148.729 25.7725 148.414 27.4232L147.524 32.0972C147.394 32.8391 147.329 33.4048 147.329 33.7943C147.329 34.8701 147.579 35.6769 148.08 36.2148C148.599 36.7342 149.304 36.9938 150.194 36.9938C151.289 36.9938 152.244 36.595 153.06 35.7975C153.876 34.9814 154.442 33.748 154.757 32.0972ZM164.829 27.2006L163.827 32.3198C163.159 35.7697 161.407 38.6353 158.569 40.9167C155.75 43.198 152.476 44.3387 148.748 44.3387C145.502 44.3387 142.914 43.4577 140.986 41.6957C139.057 39.9151 138.092 37.6059 138.092 34.7681C138.092 33.9706 138.176 33.1545 138.342 32.3198L139.344 27.2006C140.012 23.7508 141.755 20.8852 144.575 18.6038C147.412 16.3224 150.695 15.1817 154.423 15.1817C157.669 15.1817 160.257 16.072 162.186 17.8526C164.115 19.6146 165.079 21.9145 165.079 24.7523C165.079 25.5499 164.996 26.366 164.829 27.2006Z" fill="url(#paint5_linear_102_18)"/>
<path d="M164.505 38.051C164.69 37.0495 165.2 36.1963 166.035 35.4915C166.888 34.7866 167.806 34.4342 168.789 34.4342C169.735 34.4342 170.57 34.8052 171.293 35.5471C172.647 36.9938 174.187 37.7172 175.912 37.7172C176.95 37.7172 177.757 37.4853 178.332 37.0216C178.926 36.5394 179.222 35.9088 179.222 35.1298C179.222 34.6661 179.018 34.2951 178.61 34.0169C178.221 33.7202 177.544 33.4512 176.579 33.2101L174.409 32.7093C171.961 32.1529 170.143 31.3182 168.956 30.2054C167.788 29.0925 167.203 27.6272 167.203 25.8096C167.203 22.7863 168.363 20.2638 170.681 18.2421C173.018 16.2019 176.171 15.1817 180.14 15.1817C181.532 15.1817 182.932 15.3858 184.342 15.7938C185.77 16.2019 186.994 16.8139 188.014 17.63C189.053 18.4461 189.572 19.3457 189.572 20.3287C189.572 21.4045 189.145 22.369 188.292 23.2222C187.458 24.0568 186.484 24.4741 185.371 24.4741C184.406 24.4741 183.627 24.1403 183.034 23.4726C182.069 22.3597 180.938 21.8033 179.64 21.8033C178.657 21.8033 177.887 21.998 177.33 22.3875C176.793 22.777 176.524 23.3149 176.524 24.0012C176.524 24.4463 176.718 24.8173 177.108 25.114C177.516 25.3922 178.211 25.6426 179.195 25.8652L181.365 26.366C183.776 26.9224 185.575 27.7663 186.762 28.8978C187.968 30.0106 188.57 31.4759 188.57 33.2936C188.57 36.595 187.3 39.2659 184.759 41.3062C182.236 43.3279 178.861 44.3387 174.632 44.3387C173.129 44.3387 171.609 44.1254 170.069 43.6988C168.548 43.2722 167.222 42.6138 166.091 41.7235C164.978 40.8332 164.421 39.8316 164.421 38.7188C164.421 38.4962 164.449 38.2736 164.505 38.051Z" fill="white"/>
<path d="M164.505 38.051C164.69 37.0495 165.2 36.1963 166.035 35.4915C166.888 34.7866 167.806 34.4342 168.789 34.4342C169.735 34.4342 170.57 34.8052 171.293 35.5471C172.647 36.9938 174.187 37.7172 175.912 37.7172C176.95 37.7172 177.757 37.4853 178.332 37.0216C178.926 36.5394 179.222 35.9088 179.222 35.1298C179.222 34.6661 179.018 34.2951 178.61 34.0169C178.221 33.7202 177.544 33.4512 176.579 33.2101L174.409 32.7093C171.961 32.1529 170.143 31.3182 168.956 30.2054C167.788 29.0925 167.203 27.6272 167.203 25.8096C167.203 22.7863 168.363 20.2638 170.681 18.2421C173.018 16.2019 176.171 15.1817 180.14 15.1817C181.532 15.1817 182.932 15.3858 184.342 15.7938C185.77 16.2019 186.994 16.8139 188.014 17.63C189.053 18.4461 189.572 19.3457 189.572 20.3287C189.572 21.4045 189.145 22.369 188.292 23.2222C187.458 24.0568 186.484 24.4741 185.371 24.4741C184.406 24.4741 183.627 24.1403 183.034 23.4726C182.069 22.3597 180.938 21.8033 179.64 21.8033C178.657 21.8033 177.887 21.998 177.33 22.3875C176.793 22.777 176.524 23.3149 176.524 24.0012C176.524 24.4463 176.718 24.8173 177.108 25.114C177.516 25.3922 178.211 25.6426 179.195 25.8652L181.365 26.366C183.776 26.9224 185.575 27.7663 186.762 28.8978C187.968 30.0106 188.57 31.4759 188.57 33.2936C188.57 36.595 187.3 39.2659 184.759 41.3062C182.236 43.3279 178.861 44.3387 174.632 44.3387C173.129 44.3387 171.609 44.1254 170.069 43.6988C168.548 43.2722 167.222 42.6138 166.091 41.7235C164.978 40.8332 164.421 39.8316 164.421 38.7188C164.421 38.4962 164.449 38.2736 164.505 38.051Z" fill="url(#paint6_linear_102_18)"/>
</g>
</g>
<path fill-rule="evenodd" clip-rule="evenodd" d="M104.296 47.4106C106.97 47.4106 109.42 48.0867 111.376 49.6479C112.566 49.8708 113.685 50.2597 114.703 50.8433C115.061 50.3495 115.485 49.8994 115.969 49.4966C117.248 48.4275 118.785 47.8003 120.505 47.8003C121.998 47.8003 123.477 48.2882 124.628 49.4585L124.629 49.4575C124.632 49.4608 124.635 49.465 124.639 49.4683C124.648 49.4779 124.659 49.4868 124.668 49.4966L124.666 49.4976C124.765 49.5987 124.858 49.7033 124.948 49.8091C124.974 49.8088 125 49.8081 125.026 49.8081C126.52 49.8081 127.999 50.296 129.149 51.4663L129.15 51.4653C129.154 51.4686 129.157 51.4728 129.16 51.4761C129.17 51.4856 129.18 51.4947 129.189 51.5044L129.188 51.5054C129.314 51.6342 129.432 51.7675 129.543 51.9038L129.597 51.8403C130.565 50.6622 131.617 49.6372 132.771 48.9341C134.021 48.1715 135.41 47.8003 136.864 47.8003C138.192 47.8004 139.526 48.1777 140.624 49.0972C141.624 48.4605 142.776 48.0786 144.055 48.0786H162.083C163.498 48.0787 164.865 48.5714 165.928 49.6538L165.929 49.6528C165.936 49.6598 165.942 49.6673 165.949 49.6743C165.957 49.6819 165.964 49.6892 165.972 49.6968L165.971 49.6978C166.093 49.8232 166.208 49.9532 166.315 50.0864H166.604C168.02 50.0865 169.387 50.5792 170.449 51.6616L170.45 51.6606C170.457 51.6676 170.464 51.6752 170.471 51.6821C170.478 51.6896 170.486 51.6971 170.493 51.7046L170.492 51.7056C171.507 52.7434 171.997 54.0607 171.997 55.4507C171.997 57.2592 171.255 58.8261 170.033 60.0483L170.006 60.0757C168.777 61.2729 167.218 61.9839 165.436 61.9839H162.286L159.088 78.3667L159.087 78.3687C159.023 78.6941 158.937 79.0091 158.833 79.314L157.657 85.5972C157.95 85.5588 158.247 85.5386 158.55 85.5386C160.018 85.5387 161.449 86.036 162.562 87.1685L162.603 87.2085H162.601C162.709 87.3188 162.81 87.4332 162.907 87.5493C162.962 87.548 163.016 87.5464 163.071 87.5464C163.332 87.5464 163.592 87.563 163.849 87.5952C163.977 87.4716 164.11 87.3506 164.249 87.2349C165.528 86.166 167.066 85.5386 168.785 85.5386C170.278 85.5386 171.758 86.0257 172.908 87.1958C172.912 87.1991 172.916 87.2032 172.919 87.2065C172.928 87.2161 172.939 87.2252 172.948 87.2349C173.048 87.3363 173.14 87.4412 173.23 87.5474C173.256 87.5471 173.281 87.5464 173.307 87.5464C174.8 87.5464 176.279 88.0336 177.43 89.2036C177.433 89.2069 177.437 89.2111 177.44 89.2144C177.45 89.2239 177.46 89.2331 177.47 89.2427C177.596 89.3715 177.713 89.5048 177.824 89.6411L177.877 89.5786C178.845 88.4004 179.898 87.3755 181.051 86.6724C182.302 85.9097 183.69 85.5386 185.145 85.5386C186.557 85.5386 187.976 85.9642 189.111 87.0161L189.335 87.2349L189.536 87.4546C189.562 87.4847 189.587 87.5159 189.612 87.5464C189.63 87.5463 189.648 87.5464 189.666 87.5464C191.079 87.5465 192.498 87.972 193.633 89.0239L193.856 89.2427L194.058 89.4624C195.026 90.5773 195.448 91.9391 195.448 93.3286C195.448 93.652 195.433 94.1088 195.336 94.5737L191.107 116.108C190.783 117.76 189.925 119.152 188.669 120.228L188.664 120.232C187.394 121.316 185.86 121.924 184.157 121.924C182.644 121.924 181.179 121.427 180.015 120.303L179.977 120.267L179.94 120.229C179.842 120.127 179.749 120.022 179.66 119.916C179.652 119.916 179.644 119.917 179.636 119.917C178.122 119.917 176.657 119.419 175.493 118.295L175.455 118.259L175.419 118.221C175.293 118.09 175.175 117.955 175.063 117.817L175.009 117.883C174.034 119.065 172.99 120.097 171.864 120.8L171.855 120.806L171.847 120.811C170.608 121.574 169.228 121.924 167.798 121.924C166.318 121.924 164.851 121.457 163.685 120.333L163.665 120.313L163.655 120.304C162.415 121.327 160.919 121.924 159.231 121.924C158.135 121.924 157.006 121.669 155.99 121.013C155.507 120.701 155.097 120.328 154.75 119.916C154.737 119.916 154.723 119.917 154.71 119.917C153.613 119.916 152.485 119.661 151.469 119.005C150.555 118.415 149.9 117.608 149.449 116.724C149.05 118.108 148.258 119.288 147.162 120.228L147.157 120.232C145.887 121.316 144.352 121.924 142.649 121.924C141.136 121.924 139.671 121.427 138.507 120.303L138.47 120.267L138.433 120.229C138.334 120.127 138.241 120.022 138.151 119.916C138.144 119.916 138.136 119.917 138.128 119.917C137.115 119.916 136.125 119.692 135.231 119.208C132.681 121.269 129.658 122.313 126.274 122.313C124.743 122.313 123.27 122.067 121.903 121.525L120.594 128.235V128.237C120.264 129.918 119.371 131.32 118.069 132.379L118.068 132.378C116.807 133.424 115.291 134.054 113.588 134.054C112.092 134.054 110.629 133.566 109.475 132.433V132.435L109.436 132.396C109.32 132.283 109.212 132.164 109.109 132.044C109.095 132.045 109.081 132.046 109.066 132.046C107.571 132.046 106.108 131.559 104.953 130.425V130.427L104.914 130.388C103.857 129.349 103.326 128.031 103.263 126.632L103.256 126.348C103.256 125.902 103.314 125.472 103.396 125.079L104.052 121.698C103.25 121.477 102.49 121.09 101.815 120.505C99.7223 121.714 97.3241 122.313 94.6895 122.313C92.2529 122.313 89.9804 121.809 88.0645 120.616L87.7588 122.214L87.7568 122.228C87.427 123.909 86.5341 125.31 85.2324 126.37L85.2314 126.369C83.9702 127.414 82.4541 128.044 80.751 128.044C79.2556 128.044 77.7921 127.557 76.6377 126.424C76.6325 126.419 76.6272 126.415 76.6221 126.41C76.6145 126.402 76.6062 126.395 76.5986 126.387C76.483 126.274 76.3746 126.155 76.2715 126.035C76.2575 126.035 76.2435 126.037 76.2295 126.037C74.734 126.037 73.2707 125.55 72.1162 124.417C72.111 124.411 72.1058 124.407 72.1006 124.402C72.0929 124.394 72.0848 124.387 72.0771 124.379C71.2823 123.598 70.7843 122.658 70.5596 121.646H67.0098L66.8867 122.25L66.8789 122.283C66.5295 123.902 65.6733 125.268 64.4238 126.32L64.4248 126.321C64.4207 126.324 64.4152 126.327 64.4111 126.331C64.4048 126.336 64.399 126.343 64.3926 126.348L64.3916 126.347C63.1247 127.422 61.595 128.044 59.8848 128.044C58.4208 128.044 56.9712 127.574 55.8271 126.452C55.8179 126.443 55.8089 126.434 55.7998 126.425C55.7962 126.422 55.7917 126.418 55.7881 126.415C55.6637 126.292 55.5475 126.164 55.4375 126.035C55.4128 126.035 55.3881 126.037 55.3633 126.037C53.8992 126.037 52.4498 125.567 51.3057 124.444C51.2964 124.435 51.2875 124.426 51.2783 124.417C51.2746 124.414 51.2703 124.41 51.2666 124.407C50.5057 123.659 50.0179 122.765 49.7803 121.802C48.3781 122.141 46.9135 122.313 45.3916 122.313C42.2296 122.313 39.3669 121.573 37.0332 119.89C35.6468 119.57 34.3528 119.058 33.1777 118.329C32.7617 119.04 32.2226 119.676 31.5781 120.228L31.5732 120.232C30.3034 121.316 28.7691 121.924 27.0664 121.924C25.5529 121.924 24.0879 121.427 22.9238 120.303L22.8857 120.267L22.8496 120.229C22.7512 120.127 22.6585 120.022 22.5693 119.916C22.5612 119.916 22.5531 119.917 22.5449 119.917C21.0313 119.917 19.5665 119.419 18.4023 118.295L18.3643 118.259L18.3281 118.221C18.0617 117.945 17.8293 117.652 17.6299 117.344C17.1912 118.463 16.4813 119.432 15.5527 120.228L15.5479 120.232C14.278 121.316 12.7437 121.924 11.041 121.924C9.52746 121.924 8.06254 121.427 6.89844 120.303L6.86035 120.267L6.82422 120.229C6.72585 120.127 6.63312 120.022 6.54395 119.916C6.53581 119.916 6.52767 119.917 6.51953 119.917C5.00587 119.917 3.5411 119.419 2.37695 118.295L2.33887 118.259L2.30273 118.221C1.20503 117.084 0.681704 115.652 0.681641 114.134C0.681641 113.804 0.700654 113.369 0.798828 112.918L4.91016 91.8042C5.22872 90.0991 6.09639 88.649 7.42676 87.5493L7.68066 87.3442C8.96866 86.3484 10.4846 85.8159 12.1396 85.8159H27.4219C26.7813 84.8681 26.4766 83.7702 26.4766 82.6284C26.4766 82.1919 26.5287 81.7687 26.6094 81.3677L27.5537 76.1401L27.5557 76.1294L27.5576 76.1177C27.8689 74.4683 28.6879 73.0479 29.9453 71.9438L29.9727 71.9204C30.6981 71.2986 31.5073 70.8191 32.3877 70.5093C33.8683 67.0607 34.9679 63.4594 35.6826 59.6997L36.7363 54.1021C37.0518 52.3683 37.9329 50.896 39.29 49.7856C40.6249 48.6745 42.2199 48.0786 43.9717 48.0786H56.2686C57.7586 48.0786 59.2738 48.5298 60.4658 49.6997L60.4668 49.6987C60.4795 49.711 60.4924 49.7235 60.5049 49.7358L60.5039 49.7368C60.6193 49.8502 60.7283 49.9669 60.8311 50.0864C61.9284 50.0925 63.0374 50.3451 64.0195 50.9497C65.4442 49.9621 67.0378 49.1818 68.7783 48.5962C71.0732 47.8056 73.4464 47.4106 75.8838 47.4106C78.9783 47.4107 81.8035 48.1022 84.0391 49.7856C85.382 50.0782 86.6346 50.5536 87.7617 51.2476C88.1705 50.5932 88.6875 50.0068 89.2998 49.4966C90.5785 48.428 92.1159 47.8004 93.835 47.8003C95.1938 47.8003 96.5415 48.203 97.6377 49.1548C97.9595 48.9746 98.2918 48.8069 98.6338 48.6519C100.429 47.8278 102.325 47.4107 104.296 47.4106Z" fill="#0E0022"/>
<path d="M40.8995 72.948H48.6339L51.7499 56.7002H45.6848L44.9614 60.5952C44.201 64.6943 42.847 68.8118 40.8995 72.948ZM34.278 72.948C36.1698 68.8675 37.5424 64.583 38.3955 60.0944L39.4528 54.4745C39.6382 53.4544 40.139 52.6104 40.9551 51.9427C41.7712 51.2565 42.6986 50.9133 43.7373 50.9133H56.0344C56.9247 50.9133 57.6295 51.173 58.1488 51.6923C58.6867 52.2117 58.9557 52.8887 58.9557 53.7233C58.9557 53.9644 58.9279 54.2148 58.8722 54.4745L55.3111 72.948C56.1271 73.0036 56.7763 73.2818 57.2586 73.7826C57.7593 74.2834 58.0097 74.9326 58.0097 75.7301C58.0097 75.9713 57.9819 76.2309 57.9263 76.5091L56.9247 81.7396C56.7392 82.6855 56.2477 83.4831 55.4502 84.1322C54.6526 84.8 53.7901 85.1338 52.8628 85.1338C52.0281 85.1338 51.3511 84.8742 50.8318 84.3548C50.3124 83.854 50.0528 83.2141 50.0528 82.4351C50.0528 82.2311 50.0806 81.9993 50.1362 81.7396L50.7483 78.7349H36.6706L36.0585 81.7396C35.8545 82.6855 35.363 83.4831 34.584 84.1322C33.805 84.8 32.9425 85.1338 31.9966 85.1338C31.1805 85.1338 30.5221 84.8834 30.0213 84.3826C29.5019 83.8819 29.2423 83.242 29.2423 82.463C29.2423 82.2404 29.2701 81.9993 29.3257 81.7396L30.2717 76.5091C30.4571 75.5261 30.9301 74.7007 31.6906 74.033C32.4696 73.3653 33.332 73.0036 34.278 72.948Z" fill="white"/>
<path d="M40.8995 72.948H48.6339L51.7499 56.7002H45.6848L44.9614 60.5952C44.201 64.6943 42.847 68.8118 40.8995 72.948ZM34.278 72.948C36.1698 68.8675 37.5424 64.583 38.3955 60.0944L39.4528 54.4745C39.6382 53.4544 40.139 52.6104 40.9551 51.9427C41.7712 51.2565 42.6986 50.9133 43.7373 50.9133H56.0344C56.9247 50.9133 57.6295 51.173 58.1488 51.6923C58.6867 52.2117 58.9557 52.8887 58.9557 53.7233C58.9557 53.9644 58.9279 54.2148 58.8722 54.4745L55.3111 72.948C56.1271 73.0036 56.7763 73.2818 57.2586 73.7826C57.7593 74.2834 58.0097 74.9326 58.0097 75.7301C58.0097 75.9713 57.9819 76.2309 57.9263 76.5091L56.9247 81.7396C56.7392 82.6855 56.2477 83.4831 55.4502 84.1322C54.6526 84.8 53.7901 85.1338 52.8628 85.1338C52.0281 85.1338 51.3511 84.8742 50.8318 84.3548C50.3124 83.854 50.0528 83.2141 50.0528 82.4351C50.0528 82.2311 50.0806 81.9993 50.1362 81.7396L50.7483 78.7349H36.6706L36.0585 81.7396C35.8545 82.6855 35.363 83.4831 34.584 84.1322C33.805 84.8 32.9425 85.1338 31.9966 85.1338C31.1805 85.1338 30.5221 84.8834 30.0213 84.3826C29.5019 83.8819 29.2423 83.242 29.2423 82.463C29.2423 82.2404 29.2701 81.9993 29.3257 81.7396L30.2717 76.5091C30.4571 75.5261 30.9301 74.7007 31.6906 74.033C32.4696 73.3653 33.332 73.0036 34.278 72.948Z" fill="url(#paint7_linear_102_18)"/>
<path d="M73.9241 56.1438C71.8468 56.1438 69.8436 56.8486 67.9146 58.2582C67.0985 58.8517 66.3195 59.1485 65.5776 59.1485C64.8357 59.1485 64.2329 58.9352 63.7692 58.5086C63.3055 58.0635 63.0737 57.4885 63.0737 56.7837C63.0737 55.6708 63.5188 54.7712 64.4091 54.085C65.8188 52.8794 67.5159 51.9427 69.5005 51.275C71.4851 50.5887 73.5346 50.2456 75.649 50.2456C78.6538 50.2456 80.9629 50.9968 82.5766 52.4992C84.1902 54.0015 84.9971 56.0232 84.9971 58.5642C84.9971 59.436 84.9229 60.2428 84.7745 60.9847L81.8811 75.6189C81.6956 76.5648 81.2133 77.3716 80.4343 78.0393C79.6739 78.6885 78.8207 79.0131 77.8747 79.0131C77.0401 79.0131 76.3538 78.7627 75.816 78.2619C75.2966 77.7426 75.037 77.0934 75.037 76.3144C75.037 76.1846 75.0555 76.0084 75.0926 75.7858C72.9782 78.197 70.2146 79.4026 66.8018 79.4026C64.372 79.4026 62.4431 78.8091 61.0149 77.622C59.6053 76.435 58.9005 74.8769 58.9005 72.948C58.9005 72.4286 58.9561 71.9093 59.0674 71.39L59.2343 70.6666C59.5125 69.4981 59.967 68.4223 60.5976 67.4393C61.2467 66.4377 62.1092 65.5289 63.185 64.7128C64.2607 63.8967 65.6333 63.2568 67.3026 62.7931C68.9719 62.3294 70.8637 62.0976 72.9782 62.0976H77.7635L77.8747 61.3186C77.9675 60.7065 78.0139 60.2057 78.0139 59.8162C78.0139 58.6106 77.6615 57.7018 76.9566 57.0897C76.2518 56.4591 75.241 56.1438 73.9241 56.1438ZM69.417 73.6713C70.7153 73.6713 71.9766 73.3931 73.2007 72.8367C74.4434 72.2617 75.4079 71.5013 76.0942 70.5553L76.7062 67.4393H70.7524C69.5097 67.4393 68.4433 67.7083 67.553 68.2461C66.6812 68.784 66.1712 69.5167 66.0228 70.444L65.9671 70.7779C65.93 71.0376 65.9115 71.2138 65.9115 71.3065C65.9115 72.0299 66.199 72.6049 66.774 73.0315C67.3489 73.458 68.2299 73.6713 69.417 73.6713Z" fill="white"/>
<path d="M73.9241 56.1438C71.8468 56.1438 69.8436 56.8486 67.9146 58.2582C67.0985 58.8517 66.3195 59.1485 65.5776 59.1485C64.8357 59.1485 64.2329 58.9352 63.7692 58.5086C63.3055 58.0635 63.0737 57.4885 63.0737 56.7837C63.0737 55.6708 63.5188 54.7712 64.4091 54.085C65.8188 52.8794 67.5159 51.9427 69.5005 51.275C71.4851 50.5887 73.5346 50.2456 75.649 50.2456C78.6538 50.2456 80.9629 50.9968 82.5766 52.4992C84.1902 54.0015 84.9971 56.0232 84.9971 58.5642C84.9971 59.436 84.9229 60.2428 84.7745 60.9847L81.8811 75.6189C81.6956 76.5648 81.2133 77.3716 80.4343 78.0393C79.6739 78.6885 78.8207 79.0131 77.8747 79.0131C77.0401 79.0131 76.3538 78.7627 75.816 78.2619C75.2966 77.7426 75.037 77.0934 75.037 76.3144C75.037 76.1846 75.0555 76.0084 75.0926 75.7858C72.9782 78.197 70.2146 79.4026 66.8018 79.4026C64.372 79.4026 62.4431 78.8091 61.0149 77.622C59.6053 76.435 58.9005 74.8769 58.9005 72.948C58.9005 72.4286 58.9561 71.9093 59.0674 71.39L59.2343 70.6666C59.5125 69.4981 59.967 68.4223 60.5976 67.4393C61.2467 66.4377 62.1092 65.5289 63.185 64.7128C64.2607 63.8967 65.6333 63.2568 67.3026 62.7931C68.9719 62.3294 70.8637 62.0976 72.9782 62.0976H77.7635L77.8747 61.3186C77.9675 60.7065 78.0139 60.2057 78.0139 59.8162C78.0139 58.6106 77.6615 57.7018 76.9566 57.0897C76.2518 56.4591 75.241 56.1438 73.9241 56.1438ZM69.417 73.6713C70.7153 73.6713 71.9766 73.3931 73.2007 72.8367C74.4434 72.2617 75.4079 71.5013 76.0942 70.5553L76.7062 67.4393H70.7524C69.5097 67.4393 68.4433 67.7083 67.553 68.2461C66.6812 68.784 66.1712 69.5167 66.0228 70.444L65.9671 70.7779C65.93 71.0376 65.9115 71.2138 65.9115 71.3065C65.9115 72.0299 66.199 72.6049 66.774 73.0315C67.3489 73.458 68.2299 73.6713 69.417 73.6713Z" fill="url(#paint8_linear_102_18)"/>
<path d="M104.173 66.3821L104.785 63.2661C104.971 62.3387 105.063 61.4484 105.063 60.5952C105.063 57.6276 103.709 56.1438 101.001 56.1438C99.8885 56.1438 98.8221 56.422 97.8019 56.9784C96.8004 57.5348 95.975 58.2768 95.3258 59.2041L93.1001 70.444C93.4154 71.3714 93.9718 72.1133 94.7694 72.6698C95.5855 73.2262 96.55 73.5044 97.6628 73.5044C101.057 73.5044 103.227 71.1303 104.173 66.3821ZM96.383 53.7511C97.162 52.6939 98.2471 51.85 99.6382 51.2194C101.048 50.5702 102.522 50.2456 104.062 50.2456C106.658 50.2456 108.652 51.0153 110.043 52.5548C111.453 54.0757 112.158 56.1252 112.158 58.7034C112.158 59.742 112.056 60.7621 111.852 61.7637L110.628 67.8845C109.941 71.2972 108.504 74.0701 106.315 76.2031C104.127 78.3361 101.484 79.4026 98.3862 79.4026C96.8838 79.4026 95.5669 79.1058 94.4355 78.5123C93.3227 77.9002 92.5251 77.0841 92.0429 76.064L89.7615 87.749C89.576 88.695 89.0845 89.4925 88.287 90.1417C87.4894 90.8094 86.6269 91.1433 85.6996 91.1433C84.8649 91.1433 84.1879 90.8836 83.6686 90.3643C83.1493 89.8635 82.8896 89.2236 82.8896 88.4446C82.8896 88.2406 82.9174 88.0087 82.9731 87.749L89.5389 54.0293C89.7244 53.0834 90.2067 52.2859 90.9857 51.6367C91.7832 50.969 92.655 50.6351 93.6009 50.6351C94.4541 50.6351 95.1311 50.904 95.6319 51.4419C96.1326 51.9798 96.383 52.7495 96.383 53.7511Z" fill="white"/>
<path d="M104.173 66.3821L104.785 63.2661C104.971 62.3387 105.063 61.4484 105.063 60.5952C105.063 57.6276 103.709 56.1438 101.001 56.1438C99.8885 56.1438 98.8221 56.422 97.8019 56.9784C96.8004 57.5348 95.975 58.2768 95.3258 59.2041L93.1001 70.444C93.4154 71.3714 93.9718 72.1133 94.7694 72.6698C95.5855 73.2262 96.55 73.5044 97.6628 73.5044C101.057 73.5044 103.227 71.1303 104.173 66.3821ZM96.383 53.7511C97.162 52.6939 98.2471 51.85 99.6382 51.2194C101.048 50.5702 102.522 50.2456 104.062 50.2456C106.658 50.2456 108.652 51.0153 110.043 52.5548C111.453 54.0757 112.158 56.1252 112.158 58.7034C112.158 59.742 112.056 60.7621 111.852 61.7637L110.628 67.8845C109.941 71.2972 108.504 74.0701 106.315 76.2031C104.127 78.3361 101.484 79.4026 98.3862 79.4026C96.8838 79.4026 95.5669 79.1058 94.4355 78.5123C93.3227 77.9002 92.5251 77.0841 92.0429 76.064L89.7615 87.749C89.576 88.695 89.0845 89.4925 88.287 90.1417C87.4894 90.8094 86.6269 91.1433 85.6996 91.1433C84.8649 91.1433 84.1879 90.8836 83.6686 90.3643C83.1493 89.8635 82.8896 89.2236 82.8896 88.4446C82.8896 88.2406 82.9174 88.0087 82.9731 87.749L89.5389 54.0293C89.7244 53.0834 90.2067 52.2859 90.9857 51.6367C91.7832 50.969 92.655 50.6351 93.6009 50.6351C94.4541 50.6351 95.1311 50.904 95.6319 51.4419C96.1326 51.9798 96.383 52.7495 96.383 53.7511Z" fill="url(#paint9_linear_102_18)"/>
<path d="M130.898 62.4314L119.658 76.064C118.787 77.1212 117.98 77.8817 117.238 78.3454C116.515 78.7905 115.689 79.0131 114.762 79.0131C113.927 79.0131 113.25 78.7627 112.731 78.2619C112.211 77.7426 111.952 77.0841 111.952 76.2866C111.952 76.064 111.98 75.8229 112.035 75.5632L116.208 54.0293C116.394 53.0834 116.876 52.2859 117.655 51.6367C118.453 50.969 119.325 50.6351 120.27 50.6351C121.105 50.6351 121.773 50.8948 122.274 51.4141C122.793 51.9334 123.053 52.5919 123.053 53.3894C123.053 53.6677 123.034 53.881 122.997 54.0293L120.437 67.2167L131.677 53.5842C132.53 52.5455 133.337 51.7943 134.098 51.3306C134.858 50.867 135.702 50.6351 136.63 50.6351C137.483 50.6351 138.16 50.8948 138.66 51.4141C139.161 51.9334 139.412 52.6012 139.412 53.4173C139.412 53.714 139.393 53.9366 139.356 54.085L135.127 75.6189C134.942 76.5648 134.459 77.3716 133.68 78.0393C132.92 78.6885 132.067 79.0131 131.121 79.0131C130.286 79.0131 129.6 78.7534 129.062 78.2341C128.543 77.6962 128.283 77.0285 128.283 76.2309C128.283 75.9713 128.302 75.7672 128.339 75.6189L130.898 62.4314Z" fill="white"/>
<path d="M130.898 62.4314L119.658 76.064C118.787 77.1212 117.98 77.8817 117.238 78.3454C116.515 78.7905 115.689 79.0131 114.762 79.0131C113.927 79.0131 113.25 78.7627 112.731 78.2619C112.211 77.7426 111.952 77.0841 111.952 76.2866C111.952 76.064 111.98 75.8229 112.035 75.5632L116.208 54.0293C116.394 53.0834 116.876 52.2859 117.655 51.6367C118.453 50.969 119.325 50.6351 120.27 50.6351C121.105 50.6351 121.773 50.8948 122.274 51.4141C122.793 51.9334 123.053 52.5919 123.053 53.3894C123.053 53.6677 123.034 53.881 122.997 54.0293L120.437 67.2167L131.677 53.5842C132.53 52.5455 133.337 51.7943 134.098 51.3306C134.858 50.867 135.702 50.6351 136.63 50.6351C137.483 50.6351 138.16 50.8948 138.66 51.4141C139.161 51.9334 139.412 52.6012 139.412 53.4173C139.412 53.714 139.393 53.9366 139.356 54.085L135.127 75.6189C134.942 76.5648 134.459 77.3716 133.68 78.0393C132.92 78.6885 132.067 79.0131 131.121 79.0131C130.286 79.0131 129.6 78.7534 129.062 78.2341C128.543 77.6962 128.283 77.0285 128.283 76.2309C128.283 75.9713 128.302 75.7672 128.339 75.6189L130.898 62.4314Z" fill="url(#paint10_linear_102_18)"/>
<path d="M143.82 50.9133H161.848C162.553 50.9133 163.128 51.1452 163.573 51.6089C164.018 52.054 164.241 52.6104 164.241 53.2782C164.241 54.2055 163.879 55.0309 163.156 55.7543C162.433 56.4591 161.607 56.8115 160.68 56.8115H155.06L151.388 75.6189C151.202 76.5648 150.72 77.3716 149.941 78.0393C149.18 78.6885 148.327 79.0131 147.381 79.0131C146.547 79.0131 145.86 78.7534 145.322 78.2341C144.803 77.6962 144.543 77.0285 144.543 76.2309C144.543 75.9713 144.562 75.7672 144.599 75.6189L148.271 56.8115H142.652C141.928 56.8115 141.335 56.5796 140.871 56.116C140.426 55.6523 140.203 55.068 140.203 54.3632C140.203 53.4544 140.583 52.6568 141.344 51.9705C142.104 51.2657 142.93 50.9133 143.82 50.9133Z" fill="white"/>
<path d="M143.82 50.9133H161.848C162.553 50.9133 163.128 51.1452 163.573 51.6089C164.018 52.054 164.241 52.6104 164.241 53.2782C164.241 54.2055 163.879 55.0309 163.156 55.7543C162.433 56.4591 161.607 56.8115 160.68 56.8115H155.06L151.388 75.6189C151.202 76.5648 150.72 77.3716 149.941 78.0393C149.18 78.6885 148.327 79.0131 147.381 79.0131C146.547 79.0131 145.86 78.7534 145.322 78.2341C144.803 77.6962 144.543 77.0285 144.543 76.2309C144.543 75.9713 144.562 75.7672 144.599 75.6189L148.271 56.8115H142.652C141.928 56.8115 141.335 56.5796 140.871 56.116C140.426 55.6523 140.203 55.068 140.203 54.3632C140.203 53.4544 140.583 52.6568 141.344 51.9705C142.104 51.2657 142.93 50.9133 143.82 50.9133Z" fill="url(#paint11_linear_102_18)"/>
<path d="M11.905 88.6514H27.5964C28.4867 88.6514 29.1915 88.911 29.7108 89.4304C30.2487 89.9497 30.5176 90.6267 30.5176 91.4613C30.5176 91.7025 30.4898 91.9528 30.4342 92.2125L26.3166 113.357C26.1311 114.303 25.6489 115.11 24.8699 115.777C24.1094 116.427 23.2562 116.751 22.3103 116.751C21.4756 116.751 20.7894 116.491 20.2515 115.972C19.7321 115.434 19.4725 114.767 19.4725 113.969C19.4725 113.709 19.491 113.505 19.5281 113.357L23.2006 94.5495H13.9638L10.2914 113.357C10.1059 114.303 9.62365 115.11 8.84465 115.777C8.08419 116.427 7.231 116.751 6.28506 116.751C5.45042 116.751 4.76415 116.491 4.22627 115.972C3.70693 115.434 3.44727 114.767 3.44727 113.969C3.44727 113.709 3.46581 113.505 3.50291 113.357L7.6205 92.2125C7.80597 91.1924 8.30676 90.3485 9.12286 89.6808C9.93896 88.9945 10.8663 88.6514 11.905 88.6514Z" fill="white"/>
<path d="M11.905 88.6514H27.5964C28.4867 88.6514 29.1915 88.911 29.7108 89.4304C30.2487 89.9497 30.5176 90.6267 30.5176 91.4613C30.5176 91.7025 30.4898 91.9528 30.4342 92.2125L26.3166 113.357C26.1311 114.303 25.6489 115.11 24.8699 115.777C24.1094 116.427 23.2562 116.751 22.3103 116.751C21.4756 116.751 20.7894 116.491 20.2515 115.972C19.7321 115.434 19.4725 114.767 19.4725 113.969C19.4725 113.709 19.491 113.505 19.5281 113.357L23.2006 94.5495H13.9638L10.2914 113.357C10.1059 114.303 9.62365 115.11 8.84465 115.777C8.08419 116.427 7.231 116.751 6.28506 116.751C5.45042 116.751 4.76415 116.491 4.22627 115.972C3.70693 115.434 3.44727 114.767 3.44727 113.969C3.44727 113.709 3.46581 113.505 3.50291 113.357L7.6205 92.2125C7.80597 91.1924 8.30676 90.3485 9.12286 89.6808C9.93896 88.9945 10.8663 88.6514 11.905 88.6514Z" fill="url(#paint12_linear_102_18)"/>
<path d="M38.6328 100.114L37.6869 105.01C37.5385 105.789 37.4643 106.429 37.4643 106.93C37.4643 108.395 37.8538 109.48 38.6328 110.185C39.4304 110.89 40.4876 111.242 41.8045 111.242C43.3625 111.242 44.7443 110.732 45.9499 109.712C47.1555 108.692 47.9623 107.125 48.3704 105.01L49.3163 100.114C49.4276 99.576 49.4832 98.9639 49.4832 98.2776C49.4832 96.7753 49.0845 95.6717 48.2869 94.9669C47.5079 94.2435 46.4599 93.8818 45.1431 93.8818C43.5665 93.8818 42.1847 94.3919 40.9977 95.412C39.8291 96.4136 39.0409 97.9809 38.6328 100.114ZM30.7315 105.734L31.9557 99.3905C32.5863 96.1632 34.237 93.4552 36.9079 91.2666C39.5973 89.078 42.7319 87.9836 46.3116 87.9836C49.4461 87.9836 51.913 88.8368 53.7121 90.5432C55.5298 92.2311 56.4386 94.4197 56.4386 97.1091C56.4386 97.7954 56.3644 98.5558 56.216 99.3905L54.9919 105.734C54.3613 108.961 52.7012 111.669 50.0118 113.858C47.341 116.046 44.2157 117.141 40.636 117.141C37.5014 117.141 35.0253 116.297 33.2076 114.609C31.4085 112.902 30.5089 110.705 30.5089 108.015C30.5089 107.329 30.5831 106.568 30.7315 105.734Z" fill="white"/>
<path d="M38.6328 100.114L37.6869 105.01C37.5385 105.789 37.4643 106.429 37.4643 106.93C37.4643 108.395 37.8538 109.48 38.6328 110.185C39.4304 110.89 40.4876 111.242 41.8045 111.242C43.3625 111.242 44.7443 110.732 45.9499 109.712C47.1555 108.692 47.9623 107.125 48.3704 105.01L49.3163 100.114C49.4276 99.576 49.4832 98.9639 49.4832 98.2776C49.4832 96.7753 49.0845 95.6717 48.2869 94.9669C47.5079 94.2435 46.4599 93.8818 45.1431 93.8818C43.5665 93.8818 42.1847 94.3919 40.9977 95.412C39.8291 96.4136 39.0409 97.9809 38.6328 100.114ZM30.7315 105.734L31.9557 99.3905C32.5863 96.1632 34.237 93.4552 36.9079 91.2666C39.5973 89.078 42.7319 87.9836 46.3116 87.9836C49.4461 87.9836 51.913 88.8368 53.7121 90.5432C55.5298 92.2311 56.4386 94.4197 56.4386 97.1091C56.4386 97.7954 56.3644 98.5558 56.216 99.3905L54.9919 105.734C54.3613 108.961 52.7012 111.669 50.0118 113.858C47.341 116.046 44.2157 117.141 40.636 117.141C37.5014 117.141 35.0253 116.297 33.2076 114.609C31.4085 112.902 30.5089 110.705 30.5089 108.015C30.5089 107.329 30.5831 106.568 30.7315 105.734Z" fill="url(#paint13_linear_102_18)"/>
<path d="M64.0317 110.686H71.7661L74.8821 94.4382H68.817L68.0937 98.3333C67.3332 102.432 65.9792 106.55 64.0317 110.686ZM57.4102 110.686C59.3021 106.606 60.6746 102.321 61.5278 97.8325L62.585 92.2125C62.7705 91.1924 63.2713 90.3485 64.0874 89.6808C64.9035 88.9945 65.8308 88.6514 66.8695 88.6514H79.1666C80.0569 88.6514 80.7617 88.911 81.2811 89.4304C81.819 89.9497 82.0879 90.6267 82.0879 91.4613C82.0879 91.7025 82.0601 91.9528 82.0044 92.2125L78.4433 110.686C79.2594 110.742 79.9085 111.02 80.3908 111.521C80.8916 112.021 81.142 112.671 81.142 113.468C81.142 113.709 81.1141 113.969 81.0585 114.247L80.0569 119.478C79.8714 120.424 79.3799 121.221 78.5824 121.87C77.7848 122.538 76.9224 122.872 75.995 122.872C75.1603 122.872 74.4833 122.612 73.964 122.093C73.4447 121.592 73.185 120.952 73.185 120.173C73.185 119.969 73.2128 119.737 73.2685 119.478L73.8805 116.473H59.8028L59.1908 119.478C58.9867 120.424 58.4952 121.221 57.7162 121.87C56.9372 122.538 56.0748 122.872 55.1288 122.872C54.3127 122.872 53.6543 122.621 53.1535 122.121C52.6342 121.62 52.3745 120.98 52.3745 120.201C52.3745 119.978 52.4023 119.737 52.458 119.478L53.4039 114.247C53.5894 113.264 54.0623 112.439 54.8228 111.771C55.6018 111.103 56.4643 110.742 57.4102 110.686Z" fill="white"/>
<path d="M64.0317 110.686H71.7661L74.8821 94.4382H68.817L68.0937 98.3333C67.3332 102.432 65.9792 106.55 64.0317 110.686ZM57.4102 110.686C59.3021 106.606 60.6746 102.321 61.5278 97.8325L62.585 92.2125C62.7705 91.1924 63.2713 90.3485 64.0874 89.6808C64.9035 88.9945 65.8308 88.6514 66.8695 88.6514H79.1666C80.0569 88.6514 80.7617 88.911 81.2811 89.4304C81.819 89.9497 82.0879 90.6267 82.0879 91.4613C82.0879 91.7025 82.0601 91.9528 82.0044 92.2125L78.4433 110.686C79.2594 110.742 79.9085 111.02 80.3908 111.521C80.8916 112.021 81.142 112.671 81.142 113.468C81.142 113.709 81.1141 113.969 81.0585 114.247L80.0569 119.478C79.8714 120.424 79.3799 121.221 78.5824 121.87C77.7848 122.538 76.9224 122.872 75.995 122.872C75.1603 122.872 74.4833 122.612 73.964 122.093C73.4447 121.592 73.185 120.952 73.185 120.173C73.185 119.969 73.2128 119.737 73.2685 119.478L73.8805 116.473H59.8028L59.1908 119.478C58.9867 120.424 58.4952 121.221 57.7162 121.87C56.9372 122.538 56.0748 122.872 55.1288 122.872C54.3127 122.872 53.6543 122.621 53.1535 122.121C52.6342 121.62 52.3745 120.98 52.3745 120.201C52.3745 119.978 52.4023 119.737 52.458 119.478L53.4039 114.247C53.5894 113.264 54.0623 112.439 54.8228 111.771C55.6018 111.103 56.4643 110.742 57.4102 110.686Z" fill="url(#paint14_linear_102_18)"/>
<path d="M97.0563 93.8818C94.979 93.8818 92.9758 94.5866 91.0469 95.9962C90.2308 96.5898 89.4518 96.8865 88.7099 96.8865C87.968 96.8865 87.3652 96.6732 86.9015 96.2466C86.4378 95.8015 86.2059 95.2265 86.2059 94.5217C86.2059 93.4088 86.6511 92.5093 87.5414 91.823C88.951 90.6174 90.6481 89.6808 92.6327 89.013C94.6173 88.3268 96.6668 87.9836 98.7813 87.9836C101.786 87.9836 104.095 88.7348 105.709 90.2372C107.322 91.7396 108.129 93.7612 108.129 96.3023C108.129 97.174 108.055 97.9809 107.907 98.7228L105.013 113.357C104.828 114.303 104.346 115.11 103.567 115.777C102.806 116.427 101.953 116.751 101.007 116.751C100.172 116.751 99.4861 116.501 98.9482 116C98.4289 115.481 98.1692 114.831 98.1692 114.052C98.1692 113.923 98.1877 113.746 98.2248 113.524C96.1104 115.935 93.3468 117.141 89.934 117.141C87.5043 117.141 85.5753 116.547 84.1471 115.36C82.7375 114.173 82.0327 112.615 82.0327 110.686C82.0327 110.167 82.0883 109.647 82.1996 109.128L82.3665 108.405C82.6448 107.236 83.0992 106.16 83.7298 105.177C84.379 104.176 85.2414 103.267 86.3172 102.451C87.393 101.635 88.7655 100.995 90.4348 100.531C92.1041 100.067 93.996 99.8356 96.1104 99.8356H100.896L101.007 99.0566C101.1 98.4445 101.146 97.9438 101.146 97.5543C101.146 96.3487 100.794 95.4398 100.089 94.8277C99.3841 94.1971 98.3732 93.8818 97.0563 93.8818ZM92.5492 111.409C93.8476 111.409 95.1088 111.131 96.333 110.575C97.5757 110 98.5401 109.239 99.2264 108.293L99.8385 105.177H93.8847C92.642 105.177 91.5755 105.446 90.6852 105.984C89.8135 106.522 89.3034 107.255 89.155 108.182L89.0994 108.516C89.0623 108.776 89.0437 108.952 89.0437 109.045C89.0437 109.768 89.3312 110.343 89.9062 110.769C90.4812 111.196 91.3622 111.409 92.5492 111.409Z" fill="white"/>
<path d="M97.0563 93.8818C94.979 93.8818 92.9758 94.5866 91.0469 95.9962C90.2308 96.5898 89.4518 96.8865 88.7099 96.8865C87.968 96.8865 87.3652 96.6732 86.9015 96.2466C86.4378 95.8015 86.2059 95.2265 86.2059 94.5217C86.2059 93.4088 86.6511 92.5093 87.5414 91.823C88.951 90.6174 90.6481 89.6808 92.6327 89.013C94.6173 88.3268 96.6668 87.9836 98.7813 87.9836C101.786 87.9836 104.095 88.7348 105.709 90.2372C107.322 91.7396 108.129 93.7612 108.129 96.3023C108.129 97.174 108.055 97.9809 107.907 98.7228L105.013 113.357C104.828 114.303 104.346 115.11 103.567 115.777C102.806 116.427 101.953 116.751 101.007 116.751C100.172 116.751 99.4861 116.501 98.9482 116C98.4289 115.481 98.1692 114.831 98.1692 114.052C98.1692 113.923 98.1877 113.746 98.2248 113.524C96.1104 115.935 93.3468 117.141 89.934 117.141C87.5043 117.141 85.5753 116.547 84.1471 115.36C82.7375 114.173 82.0327 112.615 82.0327 110.686C82.0327 110.167 82.0883 109.647 82.1996 109.128L82.3665 108.405C82.6448 107.236 83.0992 106.16 83.7298 105.177C84.379 104.176 85.2414 103.267 86.3172 102.451C87.393 101.635 88.7655 100.995 90.4348 100.531C92.1041 100.067 93.996 99.8356 96.1104 99.8356H100.896L101.007 99.0566C101.1 98.4445 101.146 97.9438 101.146 97.5543C101.146 96.3487 100.794 95.4398 100.089 94.8277C99.3841 94.1971 98.3732 93.8818 97.0563 93.8818ZM92.5492 111.409C93.8476 111.409 95.1088 111.131 96.333 110.575C97.5757 110 98.5401 109.239 99.2264 108.293L99.8385 105.177H93.8847C92.642 105.177 91.5755 105.446 90.6852 105.984C89.8135 106.522 89.3034 107.255 89.155 108.182L89.0994 108.516C89.0623 108.776 89.0437 108.952 89.0437 109.045C89.0437 109.768 89.3312 110.343 89.9062 110.769C90.4812 111.196 91.3622 111.409 92.5492 111.409Z" fill="url(#paint15_linear_102_18)"/>
<path d="M127.305 104.12L127.917 101.004C128.103 100.077 128.196 99.1864 128.196 98.3333C128.196 95.3656 126.842 93.8818 124.134 93.8818C123.021 93.8818 121.954 94.16 120.934 94.7165C119.933 95.2729 119.107 96.0148 118.458 96.9422L116.232 108.182C116.548 109.109 117.104 109.851 117.902 110.408C118.718 110.964 119.682 111.242 120.795 111.242C124.189 111.242 126.359 108.868 127.305 104.12ZM119.515 91.4892C120.294 90.4319 121.379 89.588 122.77 88.9574C124.18 88.3082 125.655 87.9836 127.194 87.9836C129.791 87.9836 131.785 88.7534 133.176 90.2928C134.585 91.8137 135.29 93.8633 135.29 96.4414C135.29 97.4801 135.188 98.5002 134.984 99.5018L133.76 105.623C133.074 109.035 131.636 111.808 129.448 113.941C127.259 116.074 124.616 117.141 121.518 117.141C120.016 117.141 118.699 116.844 117.568 116.25C116.455 115.638 115.657 114.822 115.175 113.802L112.894 125.487C112.708 126.433 112.217 127.231 111.419 127.88C110.622 128.547 109.759 128.881 108.832 128.881C107.997 128.881 107.32 128.622 106.801 128.102C106.281 127.602 106.022 126.962 106.022 126.183C106.022 125.979 106.05 125.747 106.105 125.487L112.671 91.7674C112.857 90.8214 113.339 90.0239 114.118 89.3747C114.915 88.707 115.787 88.3731 116.733 88.3731C117.586 88.3731 118.263 88.6421 118.764 89.18C119.265 89.7179 119.515 90.4876 119.515 91.4892Z" fill="white"/>
<path d="M127.305 104.12L127.917 101.004C128.103 100.077 128.196 99.1864 128.196 98.3333C128.196 95.3656 126.842 93.8818 124.134 93.8818C123.021 93.8818 121.954 94.16 120.934 94.7165C119.933 95.2729 119.107 96.0148 118.458 96.9422L116.232 108.182C116.548 109.109 117.104 109.851 117.902 110.408C118.718 110.964 119.682 111.242 120.795 111.242C124.189 111.242 126.359 108.868 127.305 104.12ZM119.515 91.4892C120.294 90.4319 121.379 89.588 122.77 88.9574C124.18 88.3082 125.655 87.9836 127.194 87.9836C129.791 87.9836 131.785 88.7534 133.176 90.2928C134.585 91.8137 135.29 93.8633 135.29 96.4414C135.29 97.4801 135.188 98.5002 134.984 99.5018L133.76 105.623C133.074 109.035 131.636 111.808 129.448 113.941C127.259 116.074 124.616 117.141 121.518 117.141C120.016 117.141 118.699 116.844 117.568 116.25C116.455 115.638 115.657 114.822 115.175 113.802L112.894 125.487C112.708 126.433 112.217 127.231 111.419 127.88C110.622 128.547 109.759 128.881 108.832 128.881C107.997 128.881 107.32 128.622 106.801 128.102C106.281 127.602 106.022 126.962 106.022 126.183C106.022 125.979 106.05 125.747 106.105 125.487L112.671 91.7674C112.857 90.8214 113.339 90.0239 114.118 89.3747C114.915 88.707 115.787 88.3731 116.733 88.3731C117.586 88.3731 118.263 88.6421 118.764 89.18C119.265 89.7179 119.515 90.4876 119.515 91.4892Z" fill="url(#paint16_linear_102_18)"/>
<path d="M160.875 91.7674C160.021 95.0318 157.555 98.1107 153.474 101.004L158.204 111.242C158.445 111.78 158.565 112.263 158.565 112.689C158.565 113.765 158.148 114.711 157.313 115.527C156.479 116.343 155.533 116.751 154.476 116.751C153.214 116.751 152.324 116.176 151.805 115.026L147.242 104.732L143.124 107.125L141.9 113.357C141.715 114.303 141.233 115.11 140.454 115.777C139.693 116.427 138.84 116.751 137.894 116.751C137.059 116.751 136.373 116.491 135.835 115.972C135.316 115.434 135.056 114.767 135.056 113.969C135.056 113.709 135.075 113.505 135.112 113.357L139.341 91.7674C139.526 90.8214 140.008 90.0239 140.787 89.3747C141.585 88.707 142.457 88.3731 143.403 88.3731C144.219 88.3731 144.886 88.6328 145.406 89.1521C145.925 89.6529 146.185 90.2928 146.185 91.0718C146.185 91.3871 146.166 91.619 146.129 91.7674L144.571 99.78L146.853 98.4445C149.023 97.1648 150.701 95.9777 151.888 94.8834C153.094 93.7891 153.956 92.5835 154.476 91.2666C154.809 90.3948 155.32 89.6993 156.006 89.18C156.692 88.6421 157.462 88.3731 158.315 88.3731C159.094 88.3731 159.725 88.6235 160.207 89.1243C160.708 89.6251 160.958 90.2465 160.958 90.9884C160.958 91.248 160.93 91.5077 160.875 91.7674Z" fill="white"/>
<path d="M160.875 91.7674C160.021 95.0318 157.555 98.1107 153.474 101.004L158.204 111.242C158.445 111.78 158.565 112.263 158.565 112.689C158.565 113.765 158.148 114.711 157.313 115.527C156.479 116.343 155.533 116.751 154.476 116.751C153.214 116.751 152.324 116.176 151.805 115.026L147.242 104.732L143.124 107.125L141.9 113.357C141.715 114.303 141.233 115.11 140.454 115.777C139.693 116.427 138.84 116.751 137.894 116.751C137.059 116.751 136.373 116.491 135.835 115.972C135.316 115.434 135.056 114.767 135.056 113.969C135.056 113.709 135.075 113.505 135.112 113.357L139.341 91.7674C139.526 90.8214 140.008 90.0239 140.787 89.3747C141.585 88.707 142.457 88.3731 143.403 88.3731C144.219 88.3731 144.886 88.6328 145.406 89.1521C145.925 89.6529 146.185 90.2928 146.185 91.0718C146.185 91.3871 146.166 91.619 146.129 91.7674L144.571 99.78L146.853 98.4445C149.023 97.1648 150.701 95.9777 151.888 94.8834C153.094 93.7891 153.956 92.5835 154.476 91.2666C154.809 90.3948 155.32 89.6993 156.006 89.18C156.692 88.6421 157.462 88.3731 158.315 88.3731C159.094 88.3731 159.725 88.6235 160.207 89.1243C160.708 89.6251 160.958 90.2465 160.958 90.9884C160.958 91.248 160.93 91.5077 160.875 91.7674Z" fill="url(#paint17_linear_102_18)"/>
<path d="M179.179 100.169L167.939 113.802C167.067 114.859 166.26 115.62 165.518 116.083C164.795 116.529 163.969 116.751 163.042 116.751C162.207 116.751 161.53 116.501 161.011 116C160.492 115.481 160.232 114.822 160.232 114.025C160.232 113.802 160.26 113.561 160.316 113.301L164.489 91.7674C164.674 90.8214 165.156 90.0239 165.936 89.3747C166.733 88.707 167.605 88.3731 168.551 88.3731C169.385 88.3731 170.053 88.6328 170.554 89.1521C171.073 89.6715 171.333 90.3299 171.333 91.1275C171.333 91.4057 171.314 91.619 171.277 91.7674L168.718 104.955L179.958 91.3222C180.811 90.2836 181.618 89.5324 182.378 89.0687C183.138 88.605 183.982 88.3731 184.91 88.3731C185.763 88.3731 186.44 88.6328 186.941 89.1521C187.442 89.6715 187.692 90.3392 187.692 91.1553C187.692 91.4521 187.673 91.6746 187.636 91.823L183.407 113.357C183.222 114.303 182.74 115.11 181.961 115.777C181.2 116.427 180.347 116.751 179.401 116.751C178.566 116.751 177.88 116.491 177.342 115.972C176.823 115.434 176.563 114.767 176.563 113.969C176.563 113.709 176.582 113.505 176.619 113.357L179.179 100.169Z" fill="white"/>
<path d="M179.179 100.169L167.939 113.802C167.067 114.859 166.26 115.62 165.518 116.083C164.795 116.529 163.969 116.751 163.042 116.751C162.207 116.751 161.53 116.501 161.011 116C160.492 115.481 160.232 114.822 160.232 114.025C160.232 113.802 160.26 113.561 160.316 113.301L164.489 91.7674C164.674 90.8214 165.156 90.0239 165.936 89.3747C166.733 88.707 167.605 88.3731 168.551 88.3731C169.385 88.3731 170.053 88.6328 170.554 89.1521C171.073 89.6715 171.333 90.3299 171.333 91.1275C171.333 91.4057 171.314 91.619 171.277 91.7674L168.718 104.955L179.958 91.3222C180.811 90.2836 181.618 89.5324 182.378 89.0687C183.138 88.605 183.982 88.3731 184.91 88.3731C185.763 88.3731 186.44 88.6328 186.941 89.1521C187.442 89.6715 187.692 90.3392 187.692 91.1553C187.692 91.4521 187.673 91.6746 187.636 91.823L183.407 113.357C183.222 114.303 182.74 115.11 181.961 115.777C181.2 116.427 180.347 116.751 179.401 116.751C178.566 116.751 177.88 116.491 177.342 115.972C176.823 115.434 176.563 114.767 176.563 113.969C176.563 113.709 176.582 113.505 176.619 113.357L179.179 100.169Z" fill="url(#paint18_linear_102_18)"/>
<defs>
<filter id="filter0_i_102_18" x="4.84863" y="1.7749" width="184.724" height="42.564" filterUnits="userSpaceOnUse" color-interpolation-filters="sRGB">
<feFlood flood-opacity="0" result="BackgroundImageFix"/>
<feBlend mode="normal" in="SourceGraphic" in2="BackgroundImageFix" result="shape"/>
<feColorMatrix in="SourceAlpha" type="matrix" values="0 0 0 0 0 0 0 0 0 0 0 0 0 0 0 0 0 0 127 0" result="hardAlpha"/>
<feOffset dy="-2"/>
<feGaussianBlur stdDeviation="2"/>
<feComposite in2="hardAlpha" operator="arithmetic" k2="-1" k3="1"/>
<feColorMatrix type="matrix" values="0 0 0 0 1 0 0 0 0 1 0 0 0 0 1 0 0 0 0.5 0"/>
<feBlend mode="normal" in2="shape" result="effect1_innerShadow_102_18"/>
</filter>
<linearGradient id="paint0_linear_102_18" x1="202.165" y1="-7.08496" x2="3.96015" y2="-35.341" gradientUnits="userSpaceOnUse">
<stop offset="0.00899963" stop-color="#FFD343"/>
<stop offset="0.527307" stop-color="#7822A3"/>
<stop offset="0.964" stop-color="#0E0022"/>
</linearGradient>
<linearGradient id="paint1_linear_102_18" x1="202.165" y1="-7.08496" x2="3.96015" y2="-35.341" gradientUnits="userSpaceOnUse">
<stop offset="0.00899963" stop-color="#FFD343"/>
<stop offset="0.527307" stop-color="#7822A3"/>
<stop offset="0.964" stop-color="#0E0022"/>
</linearGradient>
<linearGradient id="paint2_linear_102_18" x1="202.165" y1="-7.08496" x2="3.96015" y2="-35.341" gradientUnits="userSpaceOnUse">
<stop offset="0.00899963" stop-color="#FFD343"/>
<stop offset="0.527307" stop-color="#7822A3"/>
<stop offset="0.964" stop-color="#0E0022"/>
</linearGradient>
<linearGradient id="paint3_linear_102_18" x1="202.165" y1="-7.08496" x2="3.96015" y2="-35.341" gradientUnits="userSpaceOnUse">
<stop offset="0.00899963" stop-color="#FFD343"/>
<stop offset="0.527307" stop-color="#7822A3"/>
<stop offset="0.964" stop-color="#0E0022"/>
</linearGradient>
<linearGradient id="paint4_linear_102_18" x1="202.165" y1="-7.08496" x2="3.96015" y2="-35.341" gradientUnits="userSpaceOnUse">
<stop offset="0.00899963" stop-color="#FFD343"/>
<stop offset="0.527307" stop-color="#7822A3"/>
<stop offset="0.964" stop-color="#0E0022"/>
</linearGradient>
<linearGradient id="paint5_linear_102_18" x1="202.165" y1="-7.08496" x2="3.96015" y2="-35.341" gradientUnits="userSpaceOnUse">
<stop offset="0.00899963" stop-color="#FFD343"/>
<stop offset="0.527307" stop-color="#7822A3"/>
<stop offset="0.964" stop-color="#0E0022"/>
</linearGradient>
<linearGradient id="paint6_linear_102_18" x1="202.165" y1="-7.08496" x2="3.96015" y2="-35.341" gradientUnits="userSpaceOnUse">
<stop offset="0.00899963" stop-color="#FFD343"/>
<stop offset="0.527307" stop-color="#7822A3"/>
<stop offset="0.964" stop-color="#0E0022"/>
</linearGradient>
<linearGradient id="paint7_linear_102_18" x1="105.32" y1="78.6179" x2="107.561" y2="123.24" gradientUnits="userSpaceOnUse">
<stop offset="0.122713" stop-color="#E2E8FC"/>
<stop offset="1" stop-color="#FFFFD4"/>
</linearGradient>
<linearGradient id="paint8_linear_102_18" x1="105.32" y1="78.6179" x2="107.561" y2="123.24" gradientUnits="userSpaceOnUse">
<stop offset="0.122713" stop-color="#E2E8FC"/>
<stop offset="1" stop-color="#FFFFD4"/>
</linearGradient>
<linearGradient id="paint9_linear_102_18" x1="105.32" y1="78.6179" x2="107.561" y2="123.24" gradientUnits="userSpaceOnUse">
<stop offset="0.122713" stop-color="#E2E8FC"/>
<stop offset="1" stop-color="#FFFFD4"/>
</linearGradient>
<linearGradient id="paint10_linear_102_18" x1="105.32" y1="78.6179" x2="107.561" y2="123.24" gradientUnits="userSpaceOnUse">
<stop offset="0.122713" stop-color="#E2E8FC"/>
<stop offset="1" stop-color="#FFFFD4"/>
</linearGradient>
<linearGradient id="paint11_linear_102_18" x1="105.32" y1="78.6179" x2="107.561" y2="123.24" gradientUnits="userSpaceOnUse">
<stop offset="0.122713" stop-color="#E2E8FC"/>
<stop offset="1" stop-color="#FFFFD4"/>
</linearGradient>
<linearGradient id="paint12_linear_102_18" x1="105.32" y1="78.6179" x2="107.561" y2="123.24" gradientUnits="userSpaceOnUse">
<stop offset="0.122713" stop-color="#E2E8FC"/>
<stop offset="1" stop-color="#FFFFD4"/>
</linearGradient>
<linearGradient id="paint13_linear_102_18" x1="105.32" y1="78.6179" x2="107.561" y2="123.24" gradientUnits="userSpaceOnUse">
<stop offset="0.122713" stop-color="#E2E8FC"/>
<stop offset="1" stop-color="#FFFFD4"/>
</linearGradient>
<linearGradient id="paint14_linear_102_18" x1="105.32" y1="78.6179" x2="107.561" y2="123.24" gradientUnits="userSpaceOnUse">
<stop offset="0.122713" stop-color="#E2E8FC"/>
<stop offset="1" stop-color="#FFFFD4"/>
</linearGradient>
<linearGradient id="paint15_linear_102_18" x1="105.32" y1="78.6179" x2="107.561" y2="123.24" gradientUnits="userSpaceOnUse">
<stop offset="0.122713" stop-color="#E2E8FC"/>
<stop offset="1" stop-color="#FFFFD4"/>
</linearGradient>
<linearGradient id="paint16_linear_102_18" x1="105.32" y1="78.6179" x2="107.561" y2="123.24" gradientUnits="userSpaceOnUse">
<stop offset="0.122713" stop-color="#E2E8FC"/>
<stop offset="1" stop-color="#FFFFD4"/>
</linearGradient>
<linearGradient id="paint17_linear_102_18" x1="105.32" y1="78.6179" x2="107.561" y2="123.24" gradientUnits="userSpaceOnUse">
<stop offset="0.122713" stop-color="#E2E8FC"/>
<stop offset="1" stop-color="#FFFFD4"/>
</linearGradient>
<linearGradient id="paint18_linear_102_18" x1="105.32" y1="78.6179" x2="107.561" y2="123.24" gradientUnits="userSpaceOnUse">
<stop offset="0.122713" stop-color="#E2E8FC"/>
<stop offset="1" stop-color="#FFFFD4"/>
</linearGradient>
<clipPath id="clip0_102_18">
<rect width="203.501" height="55.5859" fill="white" transform="translate(0.681641)"/>
</clipPath>
</defs>
</svg>
