<svg width="208" height="21" viewBox="0 0 208 21" fill="none" xmlns="http://www.w3.org/2000/svg">
<g filter="url(#filter0_i_93_724)">
<path d="M5.35863 8.59742C5.45463 8.14142 5.69063 7.75742 6.06663 7.44542C6.45063 7.12542 6.87063 6.95742 7.32663 6.94142C8.09463 6.90142 8.69863 6.69742 9.13863 6.32942C9.58663 5.96142 9.81063 5.44142 9.81063 4.76942C9.81063 4.37742 9.66663 4.07342 9.37863 3.85742C9.09063 3.64142 8.67863 3.53342 8.14263 3.53342C7.21463 3.53342 6.34263 3.97342 5.52663 4.85342C4.97463 5.44542 4.39863 5.74142 3.79863 5.74142C3.36663 5.74142 3.01063 5.60542 2.73063 5.33342C2.45863 5.06142 2.32263 4.72142 2.32263 4.31342C2.32263 3.81742 2.51863 3.34142 2.91063 2.88542C3.63063 2.06142 4.51463 1.42142 5.56263 0.965421C6.61863 0.501421 7.69463 0.269422 8.79063 0.269422C10.3586 0.269422 11.5506 0.613421 12.3666 1.30142C13.1826 1.98942 13.5906 2.90942 13.5906 4.06142C13.5906 5.10942 13.3306 6.02942 12.8106 6.82142C12.2906 7.61342 11.5586 8.19742 10.6146 8.57342C11.2546 8.85342 11.7466 9.24942 12.0906 9.76142C12.4346 10.2734 12.6066 10.8774 12.6066 11.5734C12.6066 11.8374 12.5746 12.1414 12.5106 12.4854C12.2066 14.0054 11.4426 15.2454 10.2186 16.2054C9.00263 17.1654 7.44663 17.6454 5.55063 17.6454C4.32663 17.6454 3.22263 17.3814 2.23863 16.8534C1.25463 16.3254 0.574625 15.5654 0.198625 14.5734C0.118625 14.3574 0.0786254 14.1414 0.0786254 13.9254C0.0786254 13.3894 0.302625 12.9174 0.750625 12.5094C1.20663 12.0934 1.70263 11.8854 2.23863 11.8854C2.89463 11.8854 3.35863 12.1814 3.63063 12.7734C4.11063 13.8454 4.95863 14.3814 6.17463 14.3814C6.99063 14.3814 7.64263 14.1574 8.13063 13.7094C8.61863 13.2534 8.86263 12.6654 8.86263 11.9454C8.86263 10.8894 8.13463 10.3174 6.67863 10.2294C6.27863 10.2294 5.95063 10.1054 5.69463 9.85742C5.44663 9.60942 5.32263 9.29342 5.32263 8.90942C5.32263 8.81342 5.33463 8.70942 5.35863 8.59742ZM22.7834 0.437421C23.9594 0.437421 24.6474 1.06142 24.8474 2.30942L26.8874 14.9574C26.8954 15.0214 26.8994 15.1134 26.8994 15.2334C26.8994 15.8334 26.6754 16.3574 26.2274 16.8054C25.7794 17.2534 25.2634 17.4774 24.6794 17.4774C24.2794 17.4774 23.9394 17.3614 23.6594 17.1294C23.3874 16.8974 23.2234 16.5974 23.1674 16.2294L22.8554 14.2374H17.3114L16.2554 16.2294C16.0634 16.5974 15.7834 16.8974 15.4154 17.1294C15.0474 17.3614 14.6634 17.4774 14.2634 17.4774C13.8074 17.4774 13.4354 17.3374 13.1474 17.0574C12.8594 16.7694 12.7154 16.4094 12.7154 15.9774C12.7154 15.6574 12.8154 15.3174 13.0154 14.9574L19.9514 2.30942C20.6314 1.06142 21.5754 0.437421 22.7834 0.437421ZM21.6554 6.12542L18.9434 11.2134H22.3994L21.6554 6.12542ZM28.5953 15.6534L31.2113 2.26142C31.3073 1.77342 31.5473 1.36942 31.9313 1.04942C32.3153 0.721421 32.7553 0.557421 33.2513 0.557421H40.2833C40.6753 0.557421 40.9953 0.677421 41.2433 0.91742C41.4913 1.15742 41.6153 1.46542 41.6153 1.84142C41.6153 2.36942 41.4153 2.83342 41.0153 3.23342C40.6153 3.62542 40.1553 3.82142 39.6353 3.82142H34.5953L33.9473 7.13342H36.3233C37.9313 7.13342 39.1593 7.48142 40.0073 8.17742C40.8633 8.86542 41.2913 9.82942 41.2913 11.0694C41.2913 11.4614 41.2513 11.8534 41.1713 12.2454C40.8593 13.8374 40.1073 15.0894 38.9153 16.0014C37.7233 16.9054 36.2033 17.3574 34.3553 17.3574H29.9873C29.5553 17.3574 29.2073 17.2334 28.9433 16.9854C28.6873 16.7374 28.5593 16.4134 28.5593 16.0134C28.5593 15.8934 28.5713 15.7734 28.5953 15.6534ZM37.4753 12.2454C37.4993 12.1014 37.5113 11.9614 37.5113 11.8254C37.5113 10.8734 36.8033 10.3974 35.3873 10.3974H33.3233L32.6033 14.0934H34.6673C35.4913 14.0934 36.1353 13.9334 36.5993 13.6134C37.0713 13.2854 37.3633 12.8294 37.4753 12.2454ZM52.8751 6.07742C52.9071 5.89342 52.9231 5.70942 52.9231 5.52542C52.9231 4.96542 52.7431 4.54142 52.3831 4.25342C52.0311 3.96542 51.5551 3.82142 50.9551 3.82142H48.6991L47.8351 8.33342H50.0911C50.7951 8.33342 51.3951 8.14542 51.8911 7.76942C52.3951 7.38542 52.7231 6.82142 52.8751 6.07742ZM47.3551 0.557421H52.0111C52.6351 0.557421 53.2231 0.645421 53.7751 0.821422C54.3351 0.989421 54.8351 1.24142 55.2751 1.57742C55.7151 1.91342 56.0631 2.35742 56.3191 2.90942C56.5751 3.46142 56.7031 4.08942 56.7031 4.79342C56.7031 5.16942 56.6591 5.59742 56.5711 6.07742C56.3951 6.98142 56.0751 7.79742 55.6111 8.52542C55.1471 9.24542 54.6031 9.82542 53.9791 10.2654C53.3631 10.6974 52.7071 11.0294 52.0111 11.2614C51.3151 11.4854 50.6111 11.5974 49.8991 11.5974H47.1871L46.3951 15.6294C46.2911 16.1494 46.0311 16.5894 45.6151 16.9494C45.1991 17.3014 44.7311 17.4774 44.2111 17.4774C43.7551 17.4774 43.3831 17.3374 43.0951 17.0574C42.8071 16.7694 42.6631 16.4094 42.6631 15.9774C42.6631 15.8654 42.6751 15.7494 42.6991 15.6294L45.3151 2.26142C45.4111 1.77342 45.6511 1.36942 46.0351 1.04942C46.4191 0.721421 46.8591 0.557421 47.3551 0.557421ZM65.7274 0.437421C66.9034 0.437421 67.5914 1.06142 67.7914 2.30942L69.8314 14.9574C69.8394 15.0214 69.8434 15.1134 69.8434 15.2334C69.8434 15.8334 69.6194 16.3574 69.1714 16.8054C68.7234 17.2534 68.2074 17.4774 67.6234 17.4774C67.2234 17.4774 66.8834 17.3614 66.6034 17.1294C66.3314 16.8974 66.1674 16.5974 66.1114 16.2294L65.7994 14.2374H60.2554L59.1994 16.2294C59.0074 16.5974 58.7274 16.8974 58.3594 17.1294C57.9914 17.3614 57.6074 17.4774 57.2074 17.4774C56.7514 17.4774 56.3794 17.3374 56.0914 17.0574C55.8034 16.7694 55.6594 16.4094 55.6594 15.9774C55.6594 15.6574 55.7594 15.3174 55.9594 14.9574L62.8954 2.30942C63.5754 1.06142 64.5194 0.437421 65.7274 0.437421ZM64.5994 6.12542L61.8874 11.2134H65.3434L64.5994 6.12542ZM76.8434 3.82142H74.0354C73.6354 3.82142 73.3074 3.69742 73.0514 3.44942C72.8034 3.20142 72.6794 2.88542 72.6794 2.50142C72.6794 1.98142 72.8834 1.52942 73.2914 1.14542C73.7074 0.753421 74.1714 0.557421 74.6834 0.557421H83.9954C84.3874 0.557421 84.7074 0.677421 84.9554 0.91742C85.2034 1.15742 85.3274 1.46542 85.3274 1.84142C85.3274 2.36942 85.1274 2.83342 84.7274 3.23342C84.3274 3.62542 83.8674 3.82142 83.3474 3.82142H80.5394L78.2354 15.6294C78.1314 16.1494 77.8674 16.5894 77.4434 16.9494C77.0274 17.3014 76.5634 17.4774 76.0514 17.4774C75.5954 17.4774 75.2234 17.3374 74.9354 17.0574C74.6474 16.7694 74.5034 16.4094 74.5034 15.9774C74.5034 15.8654 74.5154 15.7494 74.5394 15.6294L76.8434 3.82142ZM93.0934 12.2454C93.1174 12.1014 93.1294 11.9614 93.1294 11.8254C93.1294 10.8734 92.4214 10.3974 91.0054 10.3974H88.9414L88.2214 14.0934H90.2854C91.1094 14.0934 91.7534 13.9334 92.2174 13.6134C92.6894 13.2854 92.9814 12.8294 93.0934 12.2454ZM89.9734 17.3574H85.6054C85.1734 17.3574 84.8254 17.2334 84.5614 16.9854C84.3054 16.7374 84.1774 16.4134 84.1774 16.0134C84.1774 15.8934 84.1894 15.7734 84.2134 15.6534L86.8294 2.28542C86.9334 1.76542 87.1974 1.32942 87.6214 0.977422C88.0454 0.617421 88.5174 0.437421 89.0374 0.437421C89.4854 0.437421 89.8494 0.577421 90.1294 0.85742C90.4174 1.13742 90.5614 1.49342 90.5614 1.92542C90.5614 2.04542 90.5494 2.16542 90.5254 2.28542L89.5654 7.13342H91.9414C93.5494 7.13342 94.7774 7.48142 95.6254 8.17742C96.4814 8.86542 96.9094 9.82942 96.9094 11.0694C96.9094 11.4614 96.8694 11.8534 96.7894 12.2454C96.4774 13.8374 95.7254 15.0894 94.5334 16.0014C93.3414 16.9054 91.8214 17.3574 89.9734 17.3574ZM110.265 3.82142L107.961 15.6294C107.857 16.1494 107.593 16.5894 107.169 16.9494C106.753 17.3014 106.289 17.4774 105.777 17.4774C105.321 17.4774 104.949 17.3374 104.661 17.0574C104.373 16.7694 104.229 16.4094 104.229 15.9774C104.229 15.8654 104.241 15.7494 104.265 15.6294L106.881 2.26142C106.977 1.77342 107.217 1.36942 107.601 1.04942C107.985 0.721421 108.425 0.557421 108.921 0.557421H117.657C118.081 0.557421 118.421 0.681421 118.677 0.929421C118.933 1.17742 119.061 1.50142 119.061 1.90142C119.061 2.02142 119.049 2.14142 119.025 2.26142L116.409 15.6294C116.305 16.1494 116.045 16.5894 115.629 16.9494C115.213 17.3014 114.745 17.4774 114.225 17.4774C113.769 17.4774 113.397 17.3374 113.109 17.0574C112.821 16.7694 112.677 16.4094 112.677 15.9774C112.677 15.8654 112.689 15.7494 112.713 15.6294L115.017 3.82142H110.265ZM128.256 0.269422C129.888 0.269422 131.164 0.733421 132.084 1.66142C133.004 2.58942 133.464 3.82942 133.464 5.38142C133.464 5.88542 133.408 6.42942 133.296 7.01342L132.552 10.9014C132.168 12.8854 131.268 14.5054 129.852 15.7614C128.444 17.0174 126.784 17.6454 124.872 17.6454C123.24 17.6454 121.964 17.1814 121.044 16.2534C120.124 15.3254 119.664 14.0854 119.664 12.5334C119.664 12.0454 119.72 11.5014 119.832 10.9014L120.576 7.01342C120.96 5.02942 121.856 3.40942 123.264 2.15342C124.68 0.897421 126.344 0.269422 128.256 0.269422ZM125.52 14.3814C126.368 14.3814 127.088 14.0614 127.68 13.4214C128.272 12.7734 128.688 11.8214 128.928 10.5654L129.552 7.34942C129.648 6.84542 129.696 6.38542 129.696 5.96942C129.696 5.16942 129.516 4.56542 129.156 4.15742C128.804 3.74142 128.288 3.53342 127.608 3.53342C126.752 3.53342 126.032 3.85742 125.448 4.50542C124.872 5.14542 124.464 6.09342 124.224 7.34942L123.6 10.5654C123.496 11.0774 123.444 11.5494 123.444 11.9814C123.444 12.7734 123.62 13.3734 123.972 13.7814C124.332 14.1814 124.848 14.3814 125.52 14.3814ZM138.697 14.0934H142.513L144.505 3.82142H141.577L140.905 7.32542C140.457 9.67742 139.721 11.9334 138.697 14.0934ZM134.929 14.0934C135.977 12.0374 136.753 9.70942 137.257 7.10942L138.193 2.26142C138.289 1.77342 138.529 1.36942 138.913 1.04942C139.297 0.721421 139.737 0.557421 140.233 0.557421H147.145C147.569 0.557421 147.909 0.681421 148.165 0.929421C148.421 1.17742 148.549 1.50142 148.549 1.90142C148.549 2.02142 148.537 2.14142 148.513 2.26142L146.209 14.0934H146.257C146.681 14.0934 147.021 14.2174 147.277 14.4654C147.533 14.7134 147.661 15.0374 147.661 15.4374C147.661 15.5574 147.649 15.6774 147.625 15.7974L147.097 18.5094C146.993 19.0294 146.725 19.4654 146.293 19.8174C145.869 20.1774 145.401 20.3574 144.889 20.3574C144.441 20.3574 144.073 20.2174 143.785 19.9374C143.505 19.6574 143.365 19.3014 143.365 18.8694C143.365 18.7494 143.377 18.6294 143.401 18.5094L143.641 17.3574H136.297L136.057 18.5094C135.945 19.0294 135.677 19.4654 135.253 19.8174C134.829 20.1774 134.361 20.3574 133.849 20.3574C133.393 20.3574 133.029 20.2134 132.757 19.9254C132.477 19.6454 132.337 19.2854 132.337 18.8454C132.337 18.6934 132.345 18.5814 132.361 18.5094L132.889 15.7974C132.985 15.3094 133.225 14.9054 133.609 14.5854C133.993 14.2574 134.433 14.0934 134.929 14.0934ZM158.383 0.437421C159.559 0.437421 160.247 1.06142 160.447 2.30942L162.487 14.9574C162.495 15.0214 162.499 15.1134 162.499 15.2334C162.499 15.8334 162.275 16.3574 161.827 16.8054C161.379 17.2534 160.863 17.4774 160.279 17.4774C159.879 17.4774 159.539 17.3614 159.259 17.1294C158.987 16.8974 158.823 16.5974 158.767 16.2294L158.455 14.2374H152.911L151.855 16.2294C151.663 16.5974 151.383 16.8974 151.015 17.1294C150.647 17.3614 150.263 17.4774 149.863 17.4774C149.407 17.4774 149.035 17.3374 148.747 17.0574C148.459 16.7694 148.315 16.4094 148.315 15.9774C148.315 15.6574 148.415 15.3174 148.615 14.9574L155.551 2.30942C156.231 1.06142 157.175 0.437421 158.383 0.437421ZM157.255 6.12542L154.543 11.2134H157.999L157.255 6.12542ZM174.371 6.07742C174.403 5.89342 174.419 5.70942 174.419 5.52542C174.419 4.96542 174.239 4.54142 173.879 4.25342C173.527 3.96542 173.051 3.82142 172.451 3.82142H170.195L169.331 8.33342H171.587C172.291 8.33342 172.891 8.14542 173.387 7.76942C173.891 7.38542 174.219 6.82142 174.371 6.07742ZM168.851 0.557421H173.507C174.131 0.557421 174.719 0.645421 175.271 0.821422C175.831 0.989421 176.331 1.24142 176.771 1.57742C177.211 1.91342 177.559 2.35742 177.815 2.90942C178.071 3.46142 178.199 4.08942 178.199 4.79342C178.199 5.16942 178.155 5.59742 178.067 6.07742C177.891 6.98142 177.571 7.79742 177.107 8.52542C176.643 9.24542 176.099 9.82542 175.475 10.2654C174.859 10.6974 174.203 11.0294 173.507 11.2614C172.811 11.4854 172.107 11.5974 171.395 11.5974H168.683L167.891 15.6294C167.787 16.1494 167.527 16.5894 167.111 16.9494C166.695 17.3014 166.227 17.4774 165.707 17.4774C165.251 17.4774 164.879 17.3374 164.591 17.0574C164.303 16.7694 164.159 16.4094 164.159 15.9774C164.159 15.8654 164.171 15.7494 164.195 15.6294L166.811 2.26142C166.907 1.77342 167.147 1.36942 167.531 1.04942C167.915 0.721421 168.355 0.557421 168.851 0.557421ZM187.32 0.269422C188.952 0.269422 190.228 0.733421 191.148 1.66142C192.068 2.58942 192.528 3.82942 192.528 5.38142C192.528 5.88542 192.472 6.42942 192.36 7.01342L191.616 10.9014C191.232 12.8854 190.332 14.5054 188.916 15.7614C187.508 17.0174 185.848 17.6454 183.936 17.6454C182.304 17.6454 181.028 17.1814 180.108 16.2534C179.188 15.3254 178.728 14.0854 178.728 12.5334C178.728 12.0454 178.784 11.5014 178.896 10.9014L179.64 7.01342C180.024 5.02942 180.92 3.40942 182.328 2.15342C183.744 0.897421 185.408 0.269422 187.32 0.269422ZM184.584 14.3814C185.432 14.3814 186.152 14.0614 186.744 13.4214C187.336 12.7734 187.752 11.8214 187.992 10.5654L188.616 7.34942C188.712 6.84542 188.76 6.38542 188.76 5.96942C188.76 5.16942 188.58 4.56542 188.22 4.15742C187.868 3.74142 187.352 3.53342 186.672 3.53342C185.816 3.53342 185.096 3.85742 184.512 4.50542C183.936 5.14542 183.528 6.09342 183.288 7.34942L182.664 10.5654C182.56 11.0774 182.508 11.5494 182.508 11.9814C182.508 12.7734 182.684 13.3734 183.036 13.7814C183.396 14.1814 183.912 14.3814 184.584 14.3814ZM203.784 2.21342C203.968 1.68542 204.256 1.25742 204.648 0.929421C205.04 0.601421 205.488 0.437421 205.992 0.437421C206.44 0.437421 206.808 0.573421 207.096 0.845421C207.384 1.10942 207.528 1.44942 207.528 1.86542C207.528 2.01742 207.512 2.15742 207.48 2.28542C207.128 3.61342 206.6 4.76542 205.896 5.74142C205.192 6.71742 204.224 7.62142 202.992 8.45342L205.752 14.6214C205.824 14.8534 205.86 15.0694 205.86 15.2694C205.86 15.8614 205.632 16.3774 205.176 16.8174C204.728 17.2574 204.216 17.4774 203.64 17.4774C202.936 17.4774 202.44 17.1334 202.152 16.4454L199.608 10.4934L197.64 11.6454L196.848 15.6294C196.744 16.1494 196.484 16.5894 196.068 16.9494C195.652 17.3014 195.184 17.4774 194.664 17.4774C194.208 17.4774 193.836 17.3374 193.548 17.0574C193.26 16.7694 193.116 16.4094 193.116 15.9774C193.116 15.8654 193.128 15.7494 193.152 15.6294L195.768 2.28542C195.872 1.76542 196.136 1.32942 196.56 0.977422C196.984 0.617421 197.456 0.437421 197.976 0.437421C198.424 0.437421 198.788 0.577421 199.068 0.85742C199.356 1.13742 199.5 1.49342 199.5 1.92542C199.5 2.04542 199.488 2.16542 199.464 2.28542L198.432 7.51742L200.208 6.48542C201.176 5.92542 201.932 5.30542 202.476 4.62542C203.02 3.94542 203.456 3.14142 203.784 2.21342Z" fill="url(#paint0_linear_93_724)"/>
</g>
<defs>
<filter id="filter0_i_93_724" x="0.0791016" y="0.269531" width="207.449" height="20.5203" filterUnits="userSpaceOnUse" color-interpolation-filters="sRGB">
<feFlood flood-opacity="0" result="BackgroundImageFix"/>
<feBlend mode="normal" in="SourceGraphic" in2="BackgroundImageFix" result="shape"/>
<feColorMatrix in="SourceAlpha" type="matrix" values="0 0 0 0 0 0 0 0 0 0 0 0 0 0 0 0 0 0 127 0" result="hardAlpha"/>
<feOffset dy="0.54046"/>
<feGaussianBlur stdDeviation="0.216184"/>
<feComposite in2="hardAlpha" operator="arithmetic" k2="-1" k3="1"/>
<feColorMatrix type="matrix" values="0 0 0 0 0 0 0 0 0 0 0 0 0 0 0 0 0 0 0.6 0"/>
<feBlend mode="normal" in2="shape" result="effect1_innerShadow_93_724"/>
</filter>
<linearGradient id="paint0_linear_93_724" x1="103" y1="23.3574" x2="103" y2="-10.6426" gradientUnits="userSpaceOnUse">
<stop/>
<stop offset="1" stop-color="#92730E"/>
</linearGradient>
</defs>
</svg>
