<svg width="192" height="18" viewBox="0 0 192 18" fill="none" xmlns="http://www.w3.org/2000/svg">
<g filter="url(#filter0_i_86_12)">
<path d="M10.8563 2.3809C11.0403 1.8529 11.3283 1.4249 11.7203 1.0969C12.1123 0.768901 12.5603 0.604901 13.0643 0.604901C13.5123 0.604901 13.8803 0.740901 14.1683 1.0129C14.4563 1.2769 14.6003 1.6169 14.6003 2.0329C14.6003 2.1849 14.5843 2.3249 14.5523 2.4529C14.2003 3.7809 13.6723 4.9329 12.9683 5.9089C12.2643 6.8849 11.2963 7.7889 10.0643 8.6209L12.8243 14.7889C12.8963 15.0209 12.9323 15.2369 12.9323 15.4369C12.9323 16.0289 12.7043 16.5449 12.2483 16.9849C11.8003 17.4249 11.2883 17.6449 10.7123 17.6449C10.0083 17.6449 9.51228 17.3009 9.22428 16.6129L6.68028 10.6609L4.71228 11.8129L3.92028 15.7969C3.81628 16.3169 3.55628 16.7569 3.14028 17.1169C2.72428 17.4689 2.25628 17.6449 1.73628 17.6449C1.28028 17.6449 0.908279 17.5049 0.620279 17.2249C0.332279 16.9369 0.188279 16.5769 0.188279 16.1449C0.188279 16.0329 0.200279 15.9169 0.224279 15.7969L2.84028 2.4529C2.94428 1.9329 3.20828 1.4969 3.63228 1.1449C4.05628 0.784902 4.52828 0.604901 5.04828 0.604901C5.49628 0.604901 5.86028 0.744901 6.14028 1.0249C6.42828 1.3049 6.57228 1.6609 6.57228 2.0929C6.57228 2.2129 6.56028 2.3329 6.53628 2.4529L5.50428 7.6849L7.28028 6.6529C8.24828 6.0929 9.00428 5.4729 9.54828 4.7929C10.0923 4.1129 10.5283 3.3089 10.8563 2.3809ZM25.1374 6.2449C25.1694 6.0609 25.1854 5.8769 25.1854 5.6929C25.1854 5.1329 25.0054 4.7089 24.6454 4.4209C24.2934 4.1329 23.8174 3.9889 23.2174 3.9889H20.9614L20.0974 8.5009H22.3534C23.0574 8.5009 23.6574 8.3129 24.1534 7.9369C24.6574 7.5529 24.9854 6.9889 25.1374 6.2449ZM19.6174 0.724901H24.2734C24.8974 0.724901 25.4854 0.812901 26.0374 0.988902C26.5974 1.1569 27.0974 1.4089 27.5374 1.7449C27.9774 2.0809 28.3254 2.5249 28.5814 3.0769C28.8374 3.6289 28.9654 4.2569 28.9654 4.9609C28.9654 5.3369 28.9214 5.7649 28.8334 6.2449C28.6574 7.1489 28.3374 7.9649 27.8734 8.6929C27.4094 9.4129 26.8654 9.9929 26.2414 10.4329C25.6254 10.8649 24.9694 11.1969 24.2734 11.4289C23.5774 11.6529 22.8734 11.7649 22.1614 11.7649H19.4494L18.6574 15.7969C18.5534 16.3169 18.2934 16.7569 17.8774 17.1169C17.4614 17.4689 16.9934 17.6449 16.4734 17.6449C16.0174 17.6449 15.6454 17.5049 15.3574 17.2249C15.0694 16.9369 14.9254 16.5769 14.9254 16.1449C14.9254 16.0329 14.9374 15.9169 14.9614 15.7969L17.5774 2.4289C17.6734 1.9409 17.9134 1.5369 18.2974 1.2169C18.6814 0.888901 19.1214 0.724901 19.6174 0.724901ZM29.7458 16.2289C29.7458 15.6849 29.9338 15.2369 30.3098 14.8849C30.6858 14.5249 31.1578 14.3009 31.7258 14.2129C32.1738 14.1409 32.5658 13.8129 32.9018 13.2289L33.5978 12.0049L30.9098 3.2689C30.8378 3.0369 30.8018 2.8449 30.8018 2.6929C30.8018 2.1489 31.0258 1.6649 31.4738 1.2409C31.9218 0.816901 32.4138 0.604901 32.9498 0.604901C33.3098 0.604901 33.6098 0.700902 33.8498 0.892902C34.0978 1.0769 34.2698 1.3329 34.3658 1.6609L36.1898 7.7329L40.1498 1.6609C40.3578 1.3409 40.6258 1.0849 40.9538 0.892902C41.2818 0.700902 41.6298 0.604901 41.9978 0.604901C42.4138 0.604901 42.7538 0.740901 43.0178 1.0129C43.2898 1.2849 43.4258 1.6249 43.4258 2.0329C43.4258 2.3769 43.2778 2.7889 42.9818 3.2689L35.9018 14.5729C35.2058 15.6849 34.5098 16.4529 33.8138 16.8769C33.1178 17.2929 32.2618 17.5089 31.2458 17.5249H31.1018C30.7018 17.5249 30.3738 17.4049 30.1178 17.1649C29.8698 16.9169 29.7458 16.6049 29.7458 16.2289ZM47.9104 3.9889H45.1024C44.7024 3.9889 44.3744 3.8649 44.1184 3.6169C43.8704 3.3689 43.7464 3.0529 43.7464 2.6689C43.7464 2.1489 43.9504 1.6969 44.3584 1.3129C44.7744 0.920901 45.2384 0.724901 45.7504 0.724901H55.0624C55.4544 0.724901 55.7744 0.844901 56.0224 1.0849C56.2704 1.3249 56.3944 1.6329 56.3944 2.0089C56.3944 2.5369 56.1944 3.0009 55.7944 3.4009C55.3944 3.7929 54.9344 3.9889 54.4144 3.9889H51.6064L49.3024 15.7969C49.1984 16.3169 48.9344 16.7569 48.5104 17.1169C48.0944 17.4689 47.6304 17.6449 47.1184 17.6449C46.6624 17.6449 46.2904 17.5049 46.0024 17.2249C45.7144 16.9369 45.5704 16.5769 45.5704 16.1449C45.5704 16.0329 45.5824 15.9169 45.6064 15.7969L47.9104 3.9889ZM66.0325 7.5649L59.0005 16.4449C58.3685 17.2449 57.6325 17.6449 56.7925 17.6449C56.3365 17.6449 55.9645 17.5049 55.6765 17.2249C55.3885 16.9369 55.2445 16.5769 55.2445 16.1449C55.2445 16.0329 55.2565 15.9169 55.2805 15.7969L57.8965 2.4529C58.0005 1.9329 58.2645 1.4969 58.6885 1.1449C59.1125 0.784902 59.5845 0.604901 60.1045 0.604901C60.5525 0.604901 60.9165 0.744901 61.1965 1.0249C61.4845 1.3049 61.6285 1.6609 61.6285 2.0929C61.6285 2.2129 61.6165 2.3329 61.5925 2.4529L59.9845 10.6849L67.0165 1.8049C67.6485 1.0049 68.3925 0.604901 69.2485 0.604901C69.6965 0.604901 70.0605 0.744901 70.3405 1.0249C70.6285 1.3049 70.7725 1.6609 70.7725 2.0929C70.7725 2.2129 70.7605 2.3329 70.7365 2.4529L68.1205 15.7969C68.0165 16.3169 67.7565 16.7569 67.3405 17.1169C66.9245 17.4689 66.4565 17.6449 65.9365 17.6449C65.4805 17.6449 65.1085 17.5049 64.8205 17.2249C64.5325 16.9369 64.3885 16.5769 64.3885 16.1449C64.3885 16.0329 64.4005 15.9169 64.4245 15.7969L66.0325 7.5649ZM76.3992 3.9889H73.5912C73.1912 3.9889 72.8632 3.8649 72.6072 3.6169C72.3592 3.3689 72.2352 3.0529 72.2352 2.6689C72.2352 2.1489 72.4392 1.6969 72.8472 1.3129C73.2632 0.920901 73.7272 0.724901 74.2392 0.724901H83.5512C83.9432 0.724901 84.2632 0.844901 84.5112 1.0849C84.7592 1.3249 84.8832 1.6329 84.8832 2.0089C84.8832 2.5369 84.6832 3.0009 84.2832 3.4009C83.8832 3.7929 83.4232 3.9889 82.9032 3.9889H80.0952L77.7912 15.7969C77.6872 16.3169 77.4232 16.7569 76.9992 17.1169C76.5832 17.4689 76.1192 17.6449 75.6072 17.6449C75.1512 17.6449 74.7792 17.5049 74.4912 17.2249C74.2032 16.9369 74.0592 16.5769 74.0592 16.1449C74.0592 16.0329 74.0712 15.9169 74.0952 15.7969L76.3992 3.9889ZM92.6492 12.4129C92.6732 12.2689 92.6852 12.1289 92.6852 11.9929C92.6852 11.0409 91.9772 10.5649 90.5612 10.5649H88.4972L87.7772 14.2609H89.8412C90.6652 14.2609 91.3092 14.1009 91.7732 13.7809C92.2452 13.4529 92.5372 12.9969 92.6492 12.4129ZM89.5292 17.5249H85.1612C84.7292 17.5249 84.3812 17.4009 84.1172 17.1529C83.8612 16.9049 83.7332 16.5809 83.7332 16.1809C83.7332 16.0609 83.7452 15.9409 83.7692 15.8209L86.3852 2.4529C86.4892 1.9329 86.7532 1.4969 87.1772 1.1449C87.6012 0.784902 88.0732 0.604901 88.5932 0.604901C89.0412 0.604901 89.4052 0.744901 89.6852 1.0249C89.9732 1.3049 90.1172 1.6609 90.1172 2.0929C90.1172 2.2129 90.1052 2.3329 90.0812 2.4529L89.1212 7.3009H91.4972C93.1052 7.3009 94.3332 7.6489 95.1812 8.3449C96.0372 9.0329 96.4652 9.9969 96.4652 11.2369C96.4652 11.6289 96.4252 12.0209 96.3452 12.4129C96.0332 14.0049 95.2812 15.2569 94.0892 16.1689C92.8972 17.0729 91.3772 17.5249 89.5292 17.5249ZM114.428 2.3809C114.612 1.8529 114.9 1.4249 115.292 1.0969C115.684 0.768901 116.132 0.604901 116.636 0.604901C117.084 0.604901 117.452 0.740901 117.74 1.0129C118.028 1.2769 118.172 1.6169 118.172 2.0329C118.172 2.1849 118.156 2.3249 118.124 2.4529C117.772 3.7809 117.244 4.9329 116.54 5.9089C115.836 6.8849 114.868 7.7889 113.636 8.6209L116.396 14.7889C116.468 15.0209 116.504 15.2369 116.504 15.4369C116.504 16.0289 116.276 16.5449 115.82 16.9849C115.372 17.4249 114.86 17.6449 114.284 17.6449C113.58 17.6449 113.084 17.3009 112.796 16.6129L110.252 10.6609L108.284 11.8129L107.492 15.7969C107.388 16.3169 107.128 16.7569 106.712 17.1169C106.296 17.4689 105.828 17.6449 105.308 17.6449C104.852 17.6449 104.48 17.5049 104.192 17.2249C103.904 16.9369 103.76 16.5769 103.76 16.1449C103.76 16.0329 103.772 15.9169 103.796 15.7969L106.412 2.4529C106.516 1.9329 106.78 1.4969 107.204 1.1449C107.628 0.784902 108.1 0.604901 108.62 0.604901C109.068 0.604901 109.432 0.744901 109.712 1.0249C110 1.3049 110.144 1.6609 110.144 2.0929C110.144 2.2129 110.132 2.3329 110.108 2.4529L109.076 7.6849L110.852 6.6529C111.82 6.0929 112.576 5.4729 113.12 4.7929C113.664 4.1129 114.1 3.3089 114.428 2.3809ZM127.414 0.436902C129.046 0.436902 130.322 0.900902 131.242 1.8289C132.162 2.7569 132.622 3.9969 132.622 5.5489C132.622 6.0529 132.566 6.5969 132.454 7.1809L131.71 11.0689C131.326 13.0529 130.426 14.6729 129.01 15.9289C127.602 17.1849 125.942 17.8129 124.03 17.8129C122.398 17.8129 121.122 17.3489 120.202 16.4209C119.282 15.4929 118.822 14.2529 118.822 12.7009C118.822 12.2129 118.878 11.6689 118.99 11.0689L119.734 7.1809C120.118 5.1969 121.014 3.5769 122.422 2.3209C123.838 1.0649 125.502 0.436902 127.414 0.436902ZM124.678 14.5489C125.526 14.5489 126.246 14.2289 126.838 13.5889C127.43 12.9409 127.846 11.9889 128.086 10.7329L128.71 7.5169C128.806 7.0129 128.854 6.5529 128.854 6.1369C128.854 5.3369 128.674 4.7329 128.314 4.3249C127.962 3.9089 127.446 3.7009 126.766 3.7009C125.91 3.7009 125.19 4.0249 124.606 4.6729C124.03 5.3129 123.622 6.2609 123.382 7.5169L122.758 10.7329C122.654 11.2449 122.602 11.7169 122.602 12.1489C122.602 12.9409 122.778 13.5409 123.13 13.9489C123.49 14.3489 124.006 14.5489 124.678 14.5489ZM133.774 14.5249C134.11 14.4929 134.37 14.3649 134.554 14.1409C134.746 13.9089 134.886 13.5569 134.974 13.0849L137.062 2.4289C137.158 1.9409 137.398 1.5369 137.782 1.2169C138.166 0.888901 138.606 0.724901 139.102 0.724901H147.934C148.358 0.724901 148.698 0.848901 148.954 1.0969C149.21 1.3449 149.338 1.6689 149.338 2.0689C149.338 2.1889 149.326 2.3089 149.302 2.4289L146.686 15.7969C146.582 16.3169 146.322 16.7569 145.906 17.1169C145.49 17.4689 145.022 17.6449 144.502 17.6449C144.046 17.6449 143.674 17.5049 143.386 17.2249C143.098 16.9369 142.954 16.5769 142.954 16.1449C142.954 16.0329 142.966 15.9169 142.99 15.7969L145.294 3.9889H140.446L138.55 13.8049C138.278 15.1889 137.734 16.2049 136.918 16.8529C136.11 17.4929 134.982 17.8129 133.534 17.8129H133.126C132.726 17.8129 132.398 17.6889 132.142 17.4409C131.894 17.1929 131.77 16.8769 131.77 16.4929C131.77 15.9729 131.966 15.5289 132.358 15.1609C132.75 14.7929 133.222 14.5809 133.774 14.5249ZM158.767 17.5249H151.063C150.631 17.5249 150.283 17.4009 150.019 17.1529C149.763 16.9049 149.635 16.5809 149.635 16.1809C149.635 16.0609 149.647 15.9409 149.671 15.8209L152.287 2.4289C152.383 1.9409 152.623 1.5369 153.007 1.2169C153.391 0.888901 153.831 0.724901 154.327 0.724901H162.031C162.423 0.724901 162.743 0.844901 162.991 1.0849C163.239 1.3249 163.363 1.6329 163.363 2.0089C163.363 2.5369 163.163 3.0009 162.763 3.4009C162.363 3.7929 161.903 3.9889 161.383 3.9889H155.671L155.047 7.2769H159.775C160.167 7.2769 160.487 7.3969 160.735 7.6369C160.983 7.8769 161.107 8.1849 161.107 8.5609C161.107 9.0889 160.907 9.5529 160.507 9.9529C160.107 10.3449 159.647 10.5409 159.127 10.5409H154.399L153.679 14.2609H159.391C159.791 14.2609 160.115 14.3849 160.363 14.6329C160.611 14.8809 160.735 15.1969 160.735 15.5809C160.735 16.1009 160.531 16.5569 160.123 16.9489C159.723 17.3329 159.271 17.5249 158.767 17.5249ZM163.434 11.0449L164.178 7.2049C164.562 5.2049 165.458 3.5769 166.866 2.3209C168.282 1.0649 169.946 0.436902 171.858 0.436902C173.218 0.436902 174.346 0.748902 175.242 1.3729C176.138 1.9889 176.714 2.8529 176.97 3.9649C177.018 4.1889 177.042 4.3689 177.042 4.5049C177.042 5.0729 176.81 5.5729 176.346 6.0049C175.882 6.4369 175.37 6.6529 174.81 6.6529C173.994 6.6529 173.482 6.2449 173.274 5.4289C172.986 4.2769 172.314 3.7009 171.258 3.7009C170.362 3.7009 169.618 4.0289 169.026 4.6849C168.442 5.3409 168.034 6.2929 167.802 7.5409L167.202 10.7089C167.09 11.2689 167.034 11.7529 167.034 12.1609C167.034 13.7529 167.746 14.5489 169.17 14.5489C170.194 14.5489 171.09 13.9729 171.858 12.8209C172.394 12.0049 173.058 11.5969 173.85 11.5969C174.298 11.5969 174.662 11.7369 174.942 12.0169C175.23 12.2969 175.374 12.6529 175.374 13.0849C175.374 13.4529 175.242 13.8529 174.978 14.2849C174.282 15.3969 173.362 16.2649 172.218 16.8889C171.082 17.5049 169.834 17.8129 168.474 17.8129C166.842 17.8129 165.566 17.3489 164.646 16.4209C163.726 15.4929 163.266 14.2489 163.266 12.6889C163.266 12.1929 163.322 11.6449 163.434 11.0449ZM186.055 0.436902C187.687 0.436902 188.963 0.900902 189.883 1.8289C190.803 2.7569 191.263 3.9969 191.263 5.5489C191.263 6.0529 191.207 6.5969 191.095 7.1809L190.351 11.0689C189.967 13.0529 189.067 14.6729 187.651 15.9289C186.243 17.1849 184.583 17.8129 182.671 17.8129C181.039 17.8129 179.763 17.3489 178.843 16.4209C177.923 15.4929 177.463 14.2529 177.463 12.7009C177.463 12.2129 177.519 11.6689 177.631 11.0689L178.375 7.1809C178.759 5.1969 179.655 3.5769 181.063 2.3209C182.479 1.0649 184.143 0.436902 186.055 0.436902ZM183.319 14.5489C184.167 14.5489 184.887 14.2289 185.479 13.5889C186.071 12.9409 186.487 11.9889 186.727 10.7329L187.351 7.5169C187.447 7.0129 187.495 6.5529 187.495 6.1369C187.495 5.3369 187.315 4.7329 186.955 4.3249C186.603 3.9089 186.087 3.7009 185.407 3.7009C184.551 3.7009 183.831 4.0249 183.247 4.6729C182.671 5.3129 182.263 6.2609 182.023 7.5169L181.399 10.7329C181.295 11.2449 181.243 11.7169 181.243 12.1489C181.243 12.9409 181.419 13.5409 181.771 13.9489C182.131 14.3489 182.647 14.5489 183.319 14.5489Z" fill="url(#paint0_linear_86_12)"/>
</g>
<defs>
<filter id="filter0_i_86_12" x="0.188477" y="0.437012" width="191.074" height="17.8083" filterUnits="userSpaceOnUse" color-interpolation-filters="sRGB">
<feFlood flood-opacity="0" result="BackgroundImageFix"/>
<feBlend mode="normal" in="SourceGraphic" in2="BackgroundImageFix" result="shape"/>
<feColorMatrix in="SourceAlpha" type="matrix" values="0 0 0 0 0 0 0 0 0 0 0 0 0 0 0 0 0 0 127 0" result="hardAlpha"/>
<feOffset dy="0.54046"/>
<feGaussianBlur stdDeviation="0.216184"/>
<feComposite in2="hardAlpha" operator="arithmetic" k2="-1" k3="1"/>
<feColorMatrix type="matrix" values="0 0 0 0 0 0 0 0 0 0 0 0 0 0 0 0 0 0 0.6 0"/>
<feBlend mode="normal" in2="shape" result="effect1_innerShadow_86_12"/>
</filter>
<linearGradient id="paint0_linear_86_12" x1="95" y1="23.5249" x2="95" y2="-10.4751" gradientUnits="userSpaceOnUse">
<stop/>
<stop offset="1" stop-color="#92730E"/>
</linearGradient>
</defs>
</svg>
