<svg width="319" height="62" viewBox="0 0 319 62" fill="none" xmlns="http://www.w3.org/2000/svg">
<g clip-path="url(#clip0_113_2)">
<path fill-rule="evenodd" clip-rule="evenodd" d="M308.632 0C310.144 0 311.603 0.507865 312.746 1.64941C312.771 1.67379 312.797 1.69797 312.821 1.72266L312.82 1.72363C313.538 2.44203 314.008 3.28809 314.257 4.19824C315.187 4.44089 316.057 4.91257 316.795 5.64941C316.82 5.67379 316.845 5.69797 316.87 5.72266L316.869 5.72363C317.997 6.85253 318.518 8.29535 318.519 9.80957C318.519 10.1574 318.498 10.5908 318.414 11.0293L318.416 11.0303L317.952 13.6445L317.924 13.7529L313.083 32.6719C312.764 33.955 312.078 35.0627 311.078 35.9248L311.056 35.9453L311.032 35.9639C310.613 36.3106 310.156 36.5976 309.668 36.8184C309.951 37.0066 310.222 37.225 310.478 37.4756C310.481 37.4791 310.486 37.4828 310.489 37.4863C310.499 37.4955 310.508 37.5045 310.518 37.5137C311.647 38.6229 312.175 40.0505 312.175 41.5547C312.175 41.897 312.137 42.271 312.097 42.5938L312.087 42.6689L312.074 42.7432L311.907 43.6895L311.905 43.6992L311.903 43.71C311.598 45.3698 310.726 46.7481 309.486 47.8105L309.481 47.8145C308.224 48.8881 306.701 49.5068 305.002 49.5068C303.487 49.5068 302.024 48.9956 300.877 47.8486C300.146 47.1173 299.664 46.2529 299.417 45.3174C299.178 45.2569 298.944 45.182 298.714 45.0908C298.271 46.1404 297.586 47.0537 296.703 47.8105L296.699 47.8145C295.429 48.8986 293.894 49.5068 292.191 49.5068C290.678 49.5068 289.213 49.0098 288.049 47.8857L288.011 47.8496L287.975 47.8115C287.27 47.0812 286.802 46.2289 286.558 45.3105C285.705 45.0926 284.901 44.687 284.196 44.0654L283.044 45.4658C282.069 46.6479 281.024 47.6792 279.898 48.3828L279.89 48.3887L279.881 48.3936C278.642 49.1561 277.262 49.5068 275.832 49.5068C274.352 49.5068 272.885 49.0396 271.719 47.915L271.699 47.8965L271.68 47.877C271.356 47.5533 271.084 47.203 270.857 46.834C270.572 47.1829 270.253 47.5097 269.902 47.8105L269.897 47.8145C268.628 48.8986 267.093 49.5068 265.39 49.5068C263.876 49.5067 262.411 49.0097 261.247 47.8857L261.21 47.8496L261.173 47.8115C260.468 47.0813 260.001 46.2289 259.757 45.3105C258.824 45.0722 257.948 44.6101 257.198 43.8857L257.161 43.8496L257.124 43.8115C256.832 43.5094 256.583 43.1856 256.371 42.8457C255.587 44.473 254.519 45.8879 253.123 47.0244L253.122 47.0234C250.698 49.0127 247.693 49.8964 244.357 49.8965C243.098 49.8965 241.84 49.5223 240.802 48.6406C239.8 49.2014 238.682 49.5068 237.479 49.5068C236.06 49.5068 234.671 49.0782 233.529 48.0879C231.436 49.2958 229.04 49.8965 226.405 49.8965C223.494 49.8965 220.814 49.18 218.7 47.4229L218.693 47.416L218.686 47.4102C217.75 46.6225 217.022 45.7123 216.499 44.7041C216.163 45.0977 215.809 45.4794 215.435 45.8447C212.677 48.5319 209.279 49.8965 205.411 49.8965C203.879 49.8965 202.407 49.6497 201.04 49.1074L199.73 55.8174V55.8193C199.401 57.5012 198.508 58.9021 197.206 59.9619L197.205 59.9609C195.944 61.0063 194.428 61.6367 192.725 61.6367C191.229 61.6367 189.766 61.1497 188.611 60.0166C188.598 60.004 188.585 59.9922 188.572 59.9795C187.829 59.2492 187.347 58.3797 187.104 57.4424C186.178 57.2061 185.306 56.7462 184.562 56.0166C184.549 56.004 184.536 55.9922 184.523 55.9795C183.466 54.9406 182.935 53.6215 182.872 52.2227L182.866 51.9385C182.866 51.4711 182.928 51.0223 183.016 50.6143L187.554 27.3047H184.194L180.995 43.6875V43.6895C180.671 45.3419 179.813 46.734 178.557 47.8105L178.552 47.8145C177.282 48.8984 175.748 49.5068 174.045 49.5068C172.531 49.5068 171.066 49.0097 169.902 47.8857L169.864 47.8496L169.827 47.8115C169.526 47.4999 169.27 47.1651 169.055 46.8135C168.765 47.1701 168.441 47.5038 168.083 47.8105L168.078 47.8145C166.808 48.8984 165.274 49.5068 163.571 49.5068C162.058 49.5068 160.593 49.0097 159.429 47.8857L159.391 47.8496L159.354 47.8115C158.649 47.0812 158.182 46.2289 157.938 45.3105C157.085 45.0925 156.281 44.687 155.576 44.0654L154.423 45.4658C153.448 46.6479 152.404 47.6792 151.278 48.3828L151.27 48.3887L151.261 48.3936C150.022 49.1562 148.642 49.5068 147.212 49.5068C145.732 49.5068 144.265 49.0396 143.099 47.915L143.079 47.8965L143.06 47.877C142.729 47.5461 142.451 47.1878 142.222 46.8096C141.931 47.1676 141.606 47.5028 141.247 47.8105L141.242 47.8145C139.972 48.8984 138.438 49.5068 136.735 49.5068C135.222 49.5068 133.757 49.0097 132.593 47.8857L132.555 47.8496L132.518 47.8115C131.813 47.0814 131.348 46.2287 131.104 45.3105C130.994 45.2825 130.884 45.2531 130.776 45.2188C130.64 45.3459 130.502 45.4715 130.359 45.5928L130.349 45.6025L130.337 45.6113C128.938 46.7768 127.347 47.6702 125.591 48.3008L125.574 48.3066L125.559 48.3125C123.779 48.9283 121.916 49.2285 119.986 49.2285H111.473C109.96 49.2284 108.461 48.7671 107.256 47.6426L107.219 47.6074C106.719 47.1248 106.337 46.5822 106.061 46.002C105.923 46.1204 105.784 46.2377 105.641 46.3516L105.638 46.3545C103.101 48.3638 99.9183 49.2285 96.374 49.2285H87.249C85.7365 49.2285 84.2363 48.7673 83.0312 47.6426L83.0127 47.625L82.9951 47.6074C82.2196 46.8587 81.7255 45.9668 81.4736 45.0107C80.5756 44.7738 79.7231 44.3339 78.9824 43.6426L78.9639 43.625L78.9463 43.6074C77.752 42.4543 77.2227 40.9624 77.2227 39.418C77.2227 38.9661 77.2734 38.5242 77.3613 38.0967L81.3672 17.3975C81.6878 15.6781 82.5667 14.2175 83.915 13.1143C85.25 12.0028 86.8456 11.4072 88.5977 11.4072H96.9434C99.9193 11.4072 102.696 12.0139 104.795 13.7021C104.8 13.7063 104.806 13.7107 104.812 13.7148C105.379 14.1694 105.866 14.673 106.28 15.2158C106.726 14.299 107.369 13.4966 108.175 12.8252C109.454 11.7566 110.991 11.129 112.71 11.1289C114.203 11.1289 115.683 11.6159 116.834 12.7861C116.847 12.799 116.86 12.8122 116.873 12.8252C117.585 13.55 118.049 14.4002 118.291 15.3135C119.237 15.5493 120.13 16.0209 120.883 16.7861C120.896 16.799 120.909 16.8122 120.922 16.8252C122.029 17.9524 122.541 19.3821 122.541 20.8828C122.541 20.9951 122.537 21.1215 122.53 21.2578C124.398 21.6158 126.106 22.3332 127.56 23.5068C128.339 24.1308 128.98 24.8385 129.49 25.6152L131.189 16.9453C131.494 15.3901 132.274 14.0666 133.424 13.0293L133.659 12.8252C134.938 11.7564 136.476 11.1289 138.195 11.1289C139.688 11.129 141.168 11.6161 142.318 12.7861L142.357 12.8252C142.664 13.137 142.923 13.472 143.14 13.8252C143.436 13.466 143.768 13.1315 144.136 12.8252C145.415 11.7563 146.953 11.1289 148.672 11.1289C150.165 11.1289 151.644 11.6161 152.795 12.7861C152.808 12.7991 152.822 12.8122 152.835 12.8252C153.547 13.5499 154.011 14.4002 154.253 15.3135C155.103 15.5256 155.911 15.9287 156.612 16.5645L157.764 15.1689C158.732 13.9908 159.784 12.9658 160.938 12.2627C162.188 11.5001 163.577 11.1289 165.031 11.1289C166.444 11.129 167.863 11.5546 168.998 12.6064L169.222 12.8252L169.423 13.0449C169.672 13.3317 169.884 13.6356 170.062 13.9512C170.322 13.6586 170.607 13.3836 170.918 13.1279C172.256 12.0084 173.857 11.4073 175.615 11.4072H188.97C190.192 11.4072 191.378 11.7746 192.363 12.5713C193.575 11.6583 194.999 11.1289 196.577 11.1289C197.936 11.1289 199.284 11.5308 200.38 12.4824C200.597 12.361 200.819 12.2457 201.045 12.1357L201.376 11.9805C203.171 11.1566 205.068 10.7393 207.038 10.7393C210.241 10.7393 213.124 11.7086 215.219 14.0088C215.787 14.6216 216.261 15.2861 216.654 15.9912C216.795 16.0651 216.935 16.1417 217.072 16.2227C217.358 15.8804 217.683 15.561 218.048 15.2705C219.669 13.8919 221.557 12.8349 223.67 12.0742L224.099 11.9248C226.393 11.1343 228.766 10.7393 231.203 10.7393C234.687 10.7393 237.832 11.6145 240.176 13.7969C240.984 14.5493 241.636 15.3893 242.146 16.2998C242.842 16.681 243.494 17.1386 244.096 17.6797L244.151 17.3955C244.471 15.6838 245.345 14.2293 246.684 13.1279C248.022 12.0084 249.622 11.4073 251.381 11.4072H266.627C268.117 11.4072 269.632 11.8579 270.824 13.0273C270.837 13.0396 270.851 13.0522 270.863 13.0645C271.158 13.3545 271.411 13.6656 271.625 13.9932C271.954 13.5694 272.333 13.1788 272.757 12.8252C274.036 11.7566 275.573 11.1289 277.292 11.1289C278.785 11.1289 280.265 11.6158 281.416 12.7861C281.429 12.799 281.442 12.8122 281.455 12.8252C282.167 13.55 282.631 14.4002 282.873 15.3135C283.724 15.5255 284.532 15.9285 285.233 16.5645L286.385 15.1689C287.353 13.9909 288.405 12.9658 289.558 12.2627C290.808 11.5 292.197 11.1289 293.651 11.1289C295.064 11.1289 296.483 11.5546 297.618 12.6064L297.842 12.8252L298.043 13.0449C298.633 13.7243 299.019 14.4955 299.231 15.3086C299.5 15.3741 299.765 15.4577 300.023 15.5625L300.986 8.59863L300.994 8.54102L301.004 8.48438L301.449 5.98047C301.754 4.23843 302.675 2.80097 304 1.71191L304.013 1.70215L304.025 1.69141C305.335 0.637841 306.892 0 308.632 0ZM248.89 15.209C248.878 15.2175 248.866 15.2267 248.854 15.2354C248.873 15.2218 248.892 15.2085 248.91 15.1953L248.89 15.209Z" fill="#0E0022"/>
<path fill-rule="evenodd" clip-rule="evenodd" d="M23.1709 0.27832C25.5143 0.278346 27.698 0.6012 29.6689 1.31836L30.0615 1.46777C32.0065 2.24354 33.6459 3.46991 34.9102 5.13965C35.1695 5.47869 35.4018 5.83009 35.6104 6.19141C36.9089 6.93542 38.0344 7.91861 38.959 9.13965C39.4455 9.7757 39.8378 10.4539 40.1484 11.165C40.3795 11.1414 40.6142 11.1289 40.8525 11.1289C42.3457 11.1289 43.825 11.6161 44.9756 12.7861C44.9885 12.7991 45.0028 12.8122 45.0156 12.8252C45.7272 13.55 46.1916 14.4002 46.4336 15.3135C47.379 15.5493 48.2721 16.0211 49.0244 16.7861C49.0374 16.7991 49.0517 16.8122 49.0645 16.8252C50.1712 17.9524 50.6836 19.3822 50.6836 20.8828C50.6836 20.9951 50.6794 21.1215 50.6729 21.2578C52.541 21.6158 54.2483 22.3333 55.7021 23.5068C56.482 24.131 57.1226 24.8392 57.6328 25.6162L59.3311 16.9463C59.6564 15.2873 60.5222 13.8907 61.8008 12.8252C63.0796 11.7563 64.6176 11.1289 66.3369 11.1289C67.8303 11.1289 69.3103 11.6158 70.4609 12.7861C70.4739 12.799 70.4872 12.8122 70.5 12.8252C71.2116 13.55 71.676 14.4002 71.918 15.3135C72.8637 15.5493 73.7573 16.0208 74.5098 16.7861C74.5227 16.799 74.5361 16.8122 74.5488 16.8252C75.6556 17.9524 76.1679 19.3821 76.168 20.8828C76.168 21.2057 76.152 21.6459 76.0566 22.0996L71.8271 43.6895C71.5031 45.3419 70.6447 46.734 69.3887 47.8105L69.3848 47.8145C68.1148 48.8986 66.5799 49.5068 64.877 49.5068C63.3634 49.5068 61.8985 49.0097 60.7344 47.8857L60.6963 47.8496L60.6602 47.8115C59.9554 47.0816 59.4905 46.2293 59.2461 45.3115C59.136 45.2834 59.0264 45.2532 58.918 45.2188C58.7821 45.3458 58.6445 45.4716 58.502 45.5928L58.4902 45.6025L58.4795 45.6113C57.0809 46.7768 55.4892 47.6702 53.7324 48.3008L53.7168 48.3066L53.7002 48.3125C51.9213 48.9282 50.0582 49.2285 48.1289 49.2285H39.6152C38.1028 49.2285 36.6034 48.7672 35.3984 47.6426L35.3613 47.6074C34.5858 46.8586 34.0923 45.9668 33.8408 45.0107C33.6644 44.9642 33.4897 44.9103 33.3174 44.8477C32.8206 45.2852 32.2966 45.6908 31.7412 46.0586L31.7178 46.0742C30.0818 47.1354 28.3058 47.9283 26.4033 48.4531C24.5113 48.975 22.5348 49.2285 20.4863 49.2285H10.1924C8.61981 49.2285 7.05992 48.7446 5.8252 47.5498C5.05918 46.8085 4.55274 45.9304 4.2832 44.9805C3.37564 44.7264 2.51728 44.2667 1.77637 43.5498C0.562048 42.3747 0.000112222 40.8557 0 39.252C0 38.784 0.0501318 38.3234 0.138672 37.875L6.20312 6.49316C6.54345 4.71092 7.46074 3.20473 8.84668 2.05469L8.87012 2.03516C10.2569 0.908372 11.8987 0.278403 13.7109 0.27832H23.1709Z" fill="#0E0022"/>
<path d="M16.4378 42.1586H6.14383C5.1979 42.1586 4.43745 41.8803 3.86247 41.3239C3.28749 40.7675 3 40.0534 3 39.1816C3 38.922 3.02782 38.653 3.08346 38.3748L9.14856 6.99212C9.35259 5.91636 9.89047 5.01679 10.7622 4.29343C11.6525 3.57007 12.6355 3.20839 13.7113 3.20839H23.1706C25.248 3.20839 27.0749 3.49588 28.6515 4.07086C30.2466 4.64584 31.5356 5.5825 32.5187 6.88084C33.5017 8.16063 33.9932 9.73718 33.9932 11.6105C33.9932 14.0402 33.3626 16.164 32.1013 17.9816C30.8401 19.7993 29.2172 21.0884 27.2326 21.8488C28.6607 22.4424 29.7736 23.3234 30.5711 24.4919C31.3872 25.6604 31.7953 27.0515 31.7953 28.6651C31.7953 29.2772 31.7211 29.9727 31.5727 30.7517C31.2018 32.6992 30.5248 34.4149 29.5418 35.8987C28.5773 37.3825 27.4088 38.5788 26.0362 39.4877C24.6637 40.378 23.1706 41.0457 21.557 41.4908C19.9433 41.936 18.2369 42.1586 16.4378 42.1586ZM14.1008 18.9554H19.3312C20.3328 18.9554 21.2417 18.8626 22.0578 18.6772C22.8739 18.4917 23.6343 18.1949 24.3391 17.7869C25.0439 17.3603 25.5911 16.7668 25.9806 16.0063C26.3701 15.2273 26.5648 14.2999 26.5648 13.2241C26.5648 10.85 24.7472 9.66299 21.1118 9.66299H15.8814L14.1008 18.9554ZM12.821 25.3543L10.8179 35.704H17.1612C19.2385 35.704 20.982 35.1661 22.3916 34.0903C23.8198 33.0145 24.5339 31.4194 24.5339 29.305C24.5339 27.9696 24.0516 26.9773 23.0872 26.3281C22.1227 25.6789 20.8151 25.3543 19.1643 25.3543H12.821Z" fill="white"/>
<path d="M16.4378 42.1586H6.14383C5.1979 42.1586 4.43745 41.8803 3.86247 41.3239C3.28749 40.7675 3 40.0534 3 39.1816C3 38.922 3.02782 38.653 3.08346 38.3748L9.14856 6.99212C9.35259 5.91636 9.89047 5.01679 10.7622 4.29343C11.6525 3.57007 12.6355 3.20839 13.7113 3.20839H23.1706C25.248 3.20839 27.0749 3.49588 28.6515 4.07086C30.2466 4.64584 31.5356 5.5825 32.5187 6.88084C33.5017 8.16063 33.9932 9.73718 33.9932 11.6105C33.9932 14.0402 33.3626 16.164 32.1013 17.9816C30.8401 19.7993 29.2172 21.0884 27.2326 21.8488C28.6607 22.4424 29.7736 23.3234 30.5711 24.4919C31.3872 25.6604 31.7953 27.0515 31.7953 28.6651C31.7953 29.2772 31.7211 29.9727 31.5727 30.7517C31.2018 32.6992 30.5248 34.4149 29.5418 35.8987C28.5773 37.3825 27.4088 38.5788 26.0362 39.4877C24.6637 40.378 23.1706 41.0457 21.557 41.4908C19.9433 41.936 18.2369 42.1586 16.4378 42.1586ZM14.1008 18.9554H19.3312C20.3328 18.9554 21.2417 18.8626 22.0578 18.6772C22.8739 18.4917 23.6343 18.1949 24.3391 17.7869C25.0439 17.3603 25.5911 16.7668 25.9806 16.0063C26.3701 15.2273 26.5648 14.2999 26.5648 13.2241C26.5648 10.85 24.7472 9.66299 21.1118 9.66299H15.8814L14.1008 18.9554ZM12.821 25.3543L10.8179 35.704H17.1612C19.2385 35.704 20.982 35.1661 22.3916 34.0903C23.8198 33.0145 24.5339 31.4194 24.5339 29.305C24.5339 27.9696 24.0516 26.9773 23.0872 26.3281C22.1227 25.6789 20.8151 25.3543 19.1643 25.3543H12.821Z" fill="url(#paint0_linear_113_2)"/>
<path d="M43.579 17.453L42.2992 23.9076H47.5853C50.2005 23.9076 52.2779 24.529 53.8173 25.7717C55.3754 27.0144 56.1544 28.7486 56.1544 30.9743C56.1544 32.6807 55.8205 34.248 55.1528 35.6761C54.5036 37.1043 53.6226 38.2914 52.5097 39.2373C51.3969 40.1647 50.1171 40.888 48.6704 41.4074C47.2236 41.9082 45.6935 42.1586 44.0798 42.1586H35.5664C34.6761 42.1586 33.9528 41.8989 33.3963 41.3796C32.8585 40.8602 32.5895 40.1832 32.5895 39.3486C32.5895 39.1075 32.6173 38.8571 32.673 38.5974L36.7906 17.453C36.976 16.5071 37.4583 15.7095 38.2373 15.0604C39.0348 14.3927 39.9066 14.0588 40.8525 14.0588C41.6872 14.0588 42.3549 14.3185 42.8557 14.8378C43.375 15.3571 43.6347 16.0156 43.6347 16.8131C43.6347 17.0913 43.6161 17.3046 43.579 17.453ZM49.2546 33.0331C49.3103 32.7363 49.3381 32.4396 49.3381 32.1428C49.3381 30.5106 48.1047 29.6945 45.6378 29.6945H41.1864L39.9066 36.3717H44.358C47.2144 36.3717 48.8466 35.2588 49.2546 33.0331ZM58.0462 39.0425L62.2751 17.453C62.4606 16.5071 62.9428 15.7095 63.7218 15.0604C64.5194 14.3927 65.3911 14.0588 66.337 14.0588C67.1717 14.0588 67.8394 14.3185 68.3402 14.8378C68.8595 15.3571 69.1192 16.0156 69.1192 16.8131C69.1192 17.0913 69.1006 17.3046 69.0636 17.453L64.8347 39.0425C64.6492 39.9885 64.167 40.7953 63.388 41.463C62.6275 42.1122 61.7743 42.4368 60.8284 42.4368C59.9937 42.4368 59.3075 42.1771 58.7696 41.6578C58.2502 41.1199 57.9906 40.4522 57.9906 39.6546C57.9906 39.3949 58.0091 39.1909 58.0462 39.0425Z" fill="white"/>
<path d="M43.579 17.453L42.2992 23.9076H47.5853C50.2005 23.9076 52.2779 24.529 53.8173 25.7717C55.3754 27.0144 56.1544 28.7486 56.1544 30.9743C56.1544 32.6807 55.8205 34.248 55.1528 35.6761C54.5036 37.1043 53.6226 38.2914 52.5097 39.2373C51.3969 40.1647 50.1171 40.888 48.6704 41.4074C47.2236 41.9082 45.6935 42.1586 44.0798 42.1586H35.5664C34.6761 42.1586 33.9528 41.8989 33.3963 41.3796C32.8585 40.8602 32.5895 40.1832 32.5895 39.3486C32.5895 39.1075 32.6173 38.8571 32.673 38.5974L36.7906 17.453C36.976 16.5071 37.4583 15.7095 38.2373 15.0604C39.0348 14.3927 39.9066 14.0588 40.8525 14.0588C41.6872 14.0588 42.3549 14.3185 42.8557 14.8378C43.375 15.3571 43.6347 16.0156 43.6347 16.8131C43.6347 17.0913 43.6161 17.3046 43.579 17.453ZM49.2546 33.0331C49.3103 32.7363 49.3381 32.4396 49.3381 32.1428C49.3381 30.5106 48.1047 29.6945 45.6378 29.6945H41.1864L39.9066 36.3717H44.358C47.2144 36.3717 48.8466 35.2588 49.2546 33.0331ZM58.0462 39.0425L62.2751 17.453C62.4606 16.5071 62.9428 15.7095 63.7218 15.0604C64.5194 14.3927 65.3911 14.0588 66.337 14.0588C67.1717 14.0588 67.8394 14.3185 68.3402 14.8378C68.8595 15.3571 69.1192 16.0156 69.1192 16.8131C69.1192 17.0913 69.1006 17.3046 69.0636 17.453L64.8347 39.0425C64.6492 39.9885 64.167 40.7953 63.388 41.463C62.6275 42.1122 61.7743 42.4368 60.8284 42.4368C59.9937 42.4368 59.3075 42.1771 58.7696 41.6578C58.2502 41.1199 57.9906 40.4522 57.9906 39.6546C57.9906 39.3949 58.0091 39.1909 58.0462 39.0425Z" fill="url(#paint1_linear_113_2)"/>
<path d="M92.3254 42.1586H83.1999C82.3097 42.1586 81.5863 41.8989 81.0299 41.3796C80.492 40.8602 80.223 40.1832 80.223 39.3486C80.223 39.1075 80.2509 38.8571 80.3065 38.5974L84.3128 17.8982C84.4983 16.878 84.9991 16.0341 85.8152 15.3664C86.6313 14.6801 87.5586 14.337 88.5973 14.337H96.9438C99.5776 14.337 101.571 14.8842 102.925 15.9785C104.298 17.0728 104.984 18.5566 104.984 20.4299C104.984 22.0992 104.558 23.5645 103.704 24.8257C102.87 26.087 101.766 27.0236 100.394 27.6357C101.358 28.0994 102.1 28.7578 102.619 29.611C103.157 30.4457 103.426 31.4009 103.426 32.4767C103.426 32.8847 103.38 33.3484 103.287 33.8677C102.805 36.4088 101.618 38.4305 99.7259 39.9328C97.8526 41.4166 95.3858 42.1586 92.3254 42.1586ZM89.5433 25.1874H94.1616C95.3858 25.1874 96.3503 24.8999 97.0551 24.3249C97.7599 23.7314 98.1123 22.9339 98.1123 21.9323C98.1123 20.5783 97.1293 19.9013 95.1632 19.9013H90.5448L89.5433 25.1874ZM96.7769 33.5339C96.814 33.3669 96.8325 33.1351 96.8325 32.8383C96.8325 31.2618 95.7196 30.4735 93.4939 30.4735H88.486L87.3175 36.5942H92.3254C94.8479 36.5942 96.3317 35.5741 96.7769 33.5339Z" fill="white"/>
<path d="M92.3254 42.1586H83.1999C82.3097 42.1586 81.5863 41.8989 81.0299 41.3796C80.492 40.8602 80.223 40.1832 80.223 39.3486C80.223 39.1075 80.2509 38.8571 80.3065 38.5974L84.3128 17.8982C84.4983 16.878 84.9991 16.0341 85.8152 15.3664C86.6313 14.6801 87.5586 14.337 88.5973 14.337H96.9438C99.5776 14.337 101.571 14.8842 102.925 15.9785C104.298 17.0728 104.984 18.5566 104.984 20.4299C104.984 22.0992 104.558 23.5645 103.704 24.8257C102.87 26.087 101.766 27.0236 100.394 27.6357C101.358 28.0994 102.1 28.7578 102.619 29.611C103.157 30.4457 103.426 31.4009 103.426 32.4767C103.426 32.8847 103.38 33.3484 103.287 33.8677C102.805 36.4088 101.618 38.4305 99.7259 39.9328C97.8526 41.4166 95.3858 42.1586 92.3254 42.1586ZM89.5433 25.1874H94.1616C95.3858 25.1874 96.3503 24.8999 97.0551 24.3249C97.7599 23.7314 98.1123 22.9339 98.1123 21.9323C98.1123 20.5783 97.1293 19.9013 95.1632 19.9013H90.5448L89.5433 25.1874ZM96.7769 33.5339C96.814 33.3669 96.8325 33.1351 96.8325 32.8383C96.8325 31.2618 95.7196 30.4735 93.4939 30.4735H88.486L87.3175 36.5942H92.3254C94.8479 36.5942 96.3317 35.5741 96.7769 33.5339Z" fill="url(#paint2_linear_113_2)"/>
<path d="M115.437 17.453L114.157 23.9076H119.443C122.058 23.9076 124.136 24.529 125.675 25.7717C127.233 27.0144 128.012 28.7486 128.012 30.9743C128.012 32.6807 127.678 34.248 127.011 35.6761C126.361 37.1043 125.48 38.2914 124.368 39.2373C123.255 40.1647 121.975 40.888 120.528 41.4074C119.081 41.9082 117.551 42.1586 115.938 42.1586H107.424C106.534 42.1586 105.811 41.8989 105.254 41.3796C104.716 40.8602 104.447 40.1832 104.447 39.3486C104.447 39.1075 104.475 38.8571 104.531 38.5974L108.648 17.453C108.834 16.5071 109.316 15.7095 110.095 15.0604C110.893 14.3927 111.764 14.0588 112.71 14.0588C113.545 14.0588 114.213 14.3185 114.713 14.8378C115.233 15.3571 115.493 16.0156 115.493 16.8131C115.493 17.0913 115.474 17.3046 115.437 17.453ZM121.112 33.0331C121.168 32.7363 121.196 32.4396 121.196 32.1428C121.196 30.5106 119.962 29.6945 117.496 29.6945H113.044L111.764 36.3717H116.216C119.072 36.3717 120.704 35.2588 121.112 33.0331ZM129.904 39.0425L134.133 17.453C134.318 16.5071 134.801 15.7095 135.58 15.0604C136.377 14.3927 137.249 14.0588 138.195 14.0588C139.03 14.0588 139.697 14.3185 140.198 14.8378C140.717 15.3571 140.977 16.0156 140.977 16.8131C140.977 17.0913 140.958 17.3046 140.921 17.453L136.693 39.0425C136.507 39.9885 136.025 40.7953 135.246 41.463C134.485 42.1122 133.632 42.4368 132.686 42.4368C131.852 42.4368 131.165 42.1771 130.627 41.6578C130.108 41.1199 129.848 40.4522 129.848 39.6546C129.848 39.3949 129.867 39.1909 129.904 39.0425Z" fill="white"/>
<path d="M115.437 17.453L114.157 23.9076H119.443C122.058 23.9076 124.136 24.529 125.675 25.7717C127.233 27.0144 128.012 28.7486 128.012 30.9743C128.012 32.6807 127.678 34.248 127.011 35.6761C126.361 37.1043 125.48 38.2914 124.368 39.2373C123.255 40.1647 121.975 40.888 120.528 41.4074C119.081 41.9082 117.551 42.1586 115.938 42.1586H107.424C106.534 42.1586 105.811 41.8989 105.254 41.3796C104.716 40.8602 104.447 40.1832 104.447 39.3486C104.447 39.1075 104.475 38.8571 104.531 38.5974L108.648 17.453C108.834 16.5071 109.316 15.7095 110.095 15.0604C110.893 14.3927 111.764 14.0588 112.71 14.0588C113.545 14.0588 114.213 14.3185 114.713 14.8378C115.233 15.3571 115.493 16.0156 115.493 16.8131C115.493 17.0913 115.474 17.3046 115.437 17.453ZM121.112 33.0331C121.168 32.7363 121.196 32.4396 121.196 32.1428C121.196 30.5106 119.962 29.6945 117.496 29.6945H113.044L111.764 36.3717H116.216C119.072 36.3717 120.704 35.2588 121.112 33.0331ZM129.904 39.0425L134.133 17.453C134.318 16.5071 134.801 15.7095 135.58 15.0604C136.377 14.3927 137.249 14.0588 138.195 14.0588C139.03 14.0588 139.697 14.3185 140.198 14.8378C140.717 15.3571 140.977 16.0156 140.977 16.8131C140.977 17.0913 140.958 17.3046 140.921 17.453L136.693 39.0425C136.507 39.9885 136.025 40.7953 135.246 41.463C134.485 42.1122 133.632 42.4368 132.686 42.4368C131.852 42.4368 131.165 42.1771 130.627 41.6578C130.108 41.1199 129.848 40.4522 129.848 39.6546C129.848 39.3949 129.867 39.1909 129.904 39.0425Z" fill="url(#paint3_linear_113_2)"/>
<path d="M159.3 25.8551L148.06 39.4877C147.188 40.5449 146.381 41.3054 145.639 41.7691C144.916 42.2142 144.091 42.4368 143.163 42.4368C142.329 42.4368 141.652 42.1864 141.132 41.6856C140.613 41.1663 140.353 40.5078 140.353 39.7103C140.353 39.4877 140.381 39.2466 140.437 38.9869L144.61 17.453C144.795 16.5071 145.278 15.7095 146.057 15.0604C146.854 14.3927 147.726 14.0588 148.672 14.0588C149.507 14.0588 150.174 14.3185 150.675 14.8378C151.194 15.3571 151.454 16.0156 151.454 16.8131C151.454 17.0913 151.435 17.3046 151.398 17.453L148.839 30.6404L160.079 17.0079C160.932 15.9692 161.739 15.218 162.499 14.7543C163.26 14.2906 164.104 14.0588 165.031 14.0588C165.884 14.0588 166.561 14.3185 167.062 14.8378C167.563 15.3571 167.813 16.0248 167.813 16.8409C167.813 17.1377 167.795 17.3603 167.757 17.5087L163.529 39.0425C163.343 39.9885 162.861 40.7953 162.082 41.463C161.321 42.1122 160.468 42.4368 159.522 42.4368C158.688 42.4368 158.001 42.1771 157.463 41.6578C156.944 41.1199 156.684 40.4522 156.684 39.6546C156.684 39.3949 156.703 39.1909 156.74 39.0425L159.3 25.8551Z" fill="white"/>
<path d="M159.3 25.8551L148.06 39.4877C147.188 40.5449 146.381 41.3054 145.639 41.7691C144.916 42.2142 144.091 42.4368 143.163 42.4368C142.329 42.4368 141.652 42.1864 141.132 41.6856C140.613 41.1663 140.353 40.5078 140.353 39.7103C140.353 39.4877 140.381 39.2466 140.437 38.9869L144.61 17.453C144.795 16.5071 145.278 15.7095 146.057 15.0604C146.854 14.3927 147.726 14.0588 148.672 14.0588C149.507 14.0588 150.174 14.3185 150.675 14.8378C151.194 15.3571 151.454 16.0156 151.454 16.8131C151.454 17.0913 151.435 17.3046 151.398 17.453L148.839 30.6404L160.079 17.0079C160.932 15.9692 161.739 15.218 162.499 14.7543C163.26 14.2906 164.104 14.0588 165.031 14.0588C165.884 14.0588 166.561 14.3185 167.062 14.8378C167.563 15.3571 167.813 16.0248 167.813 16.8409C167.813 17.1377 167.795 17.3603 167.757 17.5087L163.529 39.0425C163.343 39.9885 162.861 40.7953 162.082 41.463C161.321 42.1122 160.468 42.4368 159.522 42.4368C158.688 42.4368 158.001 42.1771 157.463 41.6578C156.944 41.1199 156.684 40.4522 156.684 39.6546C156.684 39.3949 156.703 39.1909 156.74 39.0425L159.3 25.8551Z" fill="url(#paint4_linear_113_2)"/>
<path d="M175.616 14.337H188.97C189.675 14.337 190.25 14.5689 190.695 15.0325C191.14 15.4777 191.363 16.0341 191.363 16.7018C191.363 17.6292 191.001 18.4546 190.278 19.178C189.554 19.8828 188.729 20.2352 187.802 20.2352H177.674L174.002 39.0425C173.817 39.9885 173.334 40.7953 172.555 41.463C171.795 42.1122 170.942 42.4368 169.996 42.4368C169.161 42.4368 168.475 42.1771 167.937 41.6578C167.418 41.1199 167.158 40.4522 167.158 39.6546C167.158 39.3949 167.177 39.1909 167.214 39.0425L171.331 17.8982C171.517 16.878 172.017 16.0341 172.834 15.3664C173.65 14.6801 174.577 14.337 175.616 14.337Z" fill="white"/>
<path d="M175.616 14.337H188.97C189.675 14.337 190.25 14.5689 190.695 15.0325C191.14 15.4777 191.363 16.0341 191.363 16.7018C191.363 17.6292 191.001 18.4546 190.278 19.178C189.554 19.8828 188.729 20.2352 187.802 20.2352H177.674L174.002 39.0425C173.817 39.9885 173.334 40.7953 172.555 41.463C171.795 42.1122 170.942 42.4368 169.996 42.4368C169.161 42.4368 168.475 42.1771 167.937 41.6578C167.418 41.1199 167.158 40.4522 167.158 39.6546C167.158 39.3949 167.177 39.1909 167.214 39.0425L171.331 17.8982C171.517 16.878 172.017 16.0341 172.834 15.3664C173.65 14.6801 174.577 14.337 175.616 14.337Z" fill="url(#paint5_linear_113_2)"/>
<path d="M207.149 29.8058L207.761 26.6898C207.947 25.7624 208.04 24.8721 208.04 24.0189C208.04 21.0513 206.686 19.5675 203.978 19.5675C202.865 19.5675 201.798 19.8457 200.778 20.4021C199.777 20.9585 198.951 21.7004 198.302 22.6278L196.076 33.8677C196.392 34.7951 196.948 35.537 197.746 36.0935C198.562 36.6499 199.526 36.9281 200.639 36.9281C204.033 36.9281 206.203 34.554 207.149 29.8058ZM199.359 17.1748C200.138 16.1176 201.223 15.2737 202.614 14.643C204.024 13.9939 205.499 13.6693 207.038 13.6693C209.635 13.6693 211.629 14.439 213.02 15.9785C214.429 17.4994 215.134 19.5489 215.134 22.127C215.134 23.1657 215.032 24.1858 214.828 25.1874L213.604 31.3082C212.918 34.7209 211.48 37.4938 209.292 39.6268C207.103 41.7598 204.46 42.8263 201.362 42.8263C199.86 42.8263 198.543 42.5295 197.412 41.936C196.299 41.3239 195.501 40.5078 195.019 39.4877L192.738 51.1727C192.552 52.1187 192.061 52.9162 191.263 53.5654C190.466 54.2331 189.603 54.567 188.676 54.567C187.841 54.567 187.164 54.3073 186.645 53.788C186.125 53.2872 185.866 52.6473 185.866 51.8683C185.866 51.6642 185.894 51.4324 185.949 51.1727L192.515 17.453C192.701 16.5071 193.183 15.7095 193.962 15.0604C194.759 14.3927 195.631 14.0588 196.577 14.0588C197.43 14.0588 198.107 14.3277 198.608 14.8656C199.109 15.4035 199.359 16.1732 199.359 17.1748Z" fill="white"/>
<path d="M207.149 29.8058L207.761 26.6898C207.947 25.7624 208.04 24.8721 208.04 24.0189C208.04 21.0513 206.686 19.5675 203.978 19.5675C202.865 19.5675 201.798 19.8457 200.778 20.4021C199.777 20.9585 198.951 21.7004 198.302 22.6278L196.076 33.8677C196.392 34.7951 196.948 35.537 197.746 36.0935C198.562 36.6499 199.526 36.9281 200.639 36.9281C204.033 36.9281 206.203 34.554 207.149 29.8058ZM199.359 17.1748C200.138 16.1176 201.223 15.2737 202.614 14.643C204.024 13.9939 205.499 13.6693 207.038 13.6693C209.635 13.6693 211.629 14.439 213.02 15.9785C214.429 17.4994 215.134 19.5489 215.134 22.127C215.134 23.1657 215.032 24.1858 214.828 25.1874L213.604 31.3082C212.918 34.7209 211.48 37.4938 209.292 39.6268C207.103 41.7598 204.46 42.8263 201.362 42.8263C199.86 42.8263 198.543 42.5295 197.412 41.936C196.299 41.3239 195.501 40.5078 195.019 39.4877L192.738 51.1727C192.552 52.1187 192.061 52.9162 191.263 53.5654C190.466 54.2331 189.603 54.567 188.676 54.567C187.841 54.567 187.164 54.3073 186.645 53.788C186.125 53.2872 185.866 52.6473 185.866 51.8683C185.866 51.6642 185.894 51.4324 185.949 51.1727L192.515 17.453C192.701 16.5071 193.183 15.7095 193.962 15.0604C194.759 14.3927 195.631 14.0588 196.577 14.0588C197.43 14.0588 198.107 14.3277 198.608 14.8656C199.109 15.4035 199.359 16.1732 199.359 17.1748Z" fill="url(#paint6_linear_113_2)"/>
<path d="M229.479 19.5675C227.401 19.5675 225.398 20.2723 223.469 21.6819C222.653 22.2754 221.874 22.5722 221.132 22.5722C220.39 22.5722 219.787 22.3589 219.324 21.9323C218.86 21.4871 218.628 20.9122 218.628 20.2074C218.628 19.0945 219.073 18.1949 219.964 17.5087C221.373 16.3031 223.07 15.3664 225.055 14.6987C227.04 14.0124 229.089 13.6693 231.204 13.6693C234.208 13.6693 236.517 14.4205 238.131 15.9228C239.745 17.4252 240.552 19.4469 240.552 21.9879C240.552 22.8597 240.477 23.6665 240.329 24.4084L237.436 39.0425C237.25 39.9885 236.768 40.7953 235.989 41.463C235.228 42.1122 234.375 42.4368 233.429 42.4368C232.595 42.4368 231.908 42.1864 231.371 41.6856C230.851 41.1663 230.592 40.5171 230.592 39.7381C230.592 39.6082 230.61 39.432 230.647 39.2095C228.533 41.6207 225.769 42.8263 222.356 42.8263C219.927 42.8263 217.998 42.2327 216.569 41.0457C215.16 39.8586 214.455 38.3006 214.455 36.3717C214.455 35.8523 214.511 35.333 214.622 34.8137L214.789 34.0903C215.067 32.9218 215.522 31.846 216.152 30.863C216.801 29.8614 217.664 28.9526 218.74 28.1365C219.815 27.3204 221.188 26.6805 222.857 26.2168C224.526 25.7531 226.418 25.5213 228.533 25.5213H233.318L233.429 24.7423C233.522 24.1302 233.568 23.6294 233.568 23.2399C233.568 22.0343 233.216 21.1255 232.511 20.5134C231.806 19.8828 230.796 19.5675 229.479 19.5675ZM224.972 37.095C226.27 37.095 227.531 36.8168 228.755 36.2604C229.998 35.6854 230.962 34.925 231.649 33.979L232.261 30.863H226.307C225.064 30.863 223.998 31.1319 223.108 31.6698C222.236 32.2077 221.726 32.9403 221.577 33.8677L221.522 34.2016C221.485 34.4613 221.466 34.6375 221.466 34.7302C221.466 35.4536 221.754 36.0285 222.329 36.4551C222.904 36.8817 223.785 37.095 224.972 37.095Z" fill="white"/>
<path d="M229.479 19.5675C227.401 19.5675 225.398 20.2723 223.469 21.6819C222.653 22.2754 221.874 22.5722 221.132 22.5722C220.39 22.5722 219.787 22.3589 219.324 21.9323C218.86 21.4871 218.628 20.9122 218.628 20.2074C218.628 19.0945 219.073 18.1949 219.964 17.5087C221.373 16.3031 223.07 15.3664 225.055 14.6987C227.04 14.0124 229.089 13.6693 231.204 13.6693C234.208 13.6693 236.517 14.4205 238.131 15.9228C239.745 17.4252 240.552 19.4469 240.552 21.9879C240.552 22.8597 240.477 23.6665 240.329 24.4084L237.436 39.0425C237.25 39.9885 236.768 40.7953 235.989 41.463C235.228 42.1122 234.375 42.4368 233.429 42.4368C232.595 42.4368 231.908 42.1864 231.371 41.6856C230.851 41.1663 230.592 40.5171 230.592 39.7381C230.592 39.6082 230.61 39.432 230.647 39.2095C228.533 41.6207 225.769 42.8263 222.356 42.8263C219.927 42.8263 217.998 42.2327 216.569 41.0457C215.16 39.8586 214.455 38.3006 214.455 36.3717C214.455 35.8523 214.511 35.333 214.622 34.8137L214.789 34.0903C215.067 32.9218 215.522 31.846 216.152 30.863C216.801 29.8614 217.664 28.9526 218.74 28.1365C219.815 27.3204 221.188 26.6805 222.857 26.2168C224.526 25.7531 226.418 25.5213 228.533 25.5213H233.318L233.429 24.7423C233.522 24.1302 233.568 23.6294 233.568 23.2399C233.568 22.0343 233.216 21.1255 232.511 20.5134C231.806 19.8828 230.796 19.5675 229.479 19.5675ZM224.972 37.095C226.27 37.095 227.531 36.8168 228.755 36.2604C229.998 35.6854 230.962 34.925 231.649 33.979L232.261 30.863H226.307C225.064 30.863 223.998 31.1319 223.108 31.6698C222.236 32.2077 221.726 32.9403 221.577 33.8677L221.522 34.2016C221.485 34.4613 221.466 34.6375 221.466 34.7302C221.466 35.4536 221.754 36.0285 222.329 36.4551C222.904 36.8817 223.785 37.095 224.972 37.095Z" fill="url(#paint7_linear_113_2)"/>
<path d="M237.916 39.8215C238.082 39.0611 238.463 38.4119 239.056 37.874C239.65 37.3176 240.364 36.9837 241.198 36.8725C242.719 36.6499 243.684 35.4814 244.092 33.3669L247.097 17.8982C247.282 16.878 247.783 16.0341 248.599 15.3664C249.415 14.6801 250.342 14.337 251.381 14.337H266.627C267.518 14.337 268.222 14.5967 268.742 15.116C269.28 15.6353 269.549 16.3123 269.549 17.147C269.549 17.3881 269.521 17.6385 269.465 17.8982L265.348 39.0425C265.162 39.9885 264.68 40.7953 263.901 41.463C263.14 42.1122 262.287 42.4368 261.341 42.4368C260.507 42.4368 259.82 42.1771 259.282 41.6578C258.763 41.1199 258.503 40.4522 258.503 39.6546C258.503 39.3949 258.522 39.1909 258.559 39.0425L262.232 20.2352H253.384L250.713 34.0347C250.157 36.9652 248.979 39.1631 247.18 40.6284C245.4 42.0936 243.109 42.8263 240.308 42.8263C239.585 42.8263 239.001 42.6037 238.555 42.1586C238.092 41.6949 237.86 41.1199 237.86 40.4336C237.86 40.1739 237.878 39.9699 237.916 39.8215Z" fill="white"/>
<path d="M237.916 39.8215C238.082 39.0611 238.463 38.4119 239.056 37.874C239.65 37.3176 240.364 36.9837 241.198 36.8725C242.719 36.6499 243.684 35.4814 244.092 33.3669L247.097 17.8982C247.282 16.878 247.783 16.0341 248.599 15.3664C249.415 14.6801 250.342 14.337 251.381 14.337H266.627C267.518 14.337 268.222 14.5967 268.742 15.116C269.28 15.6353 269.549 16.3123 269.549 17.147C269.549 17.3881 269.521 17.6385 269.465 17.8982L265.348 39.0425C265.162 39.9885 264.68 40.7953 263.901 41.463C263.14 42.1122 262.287 42.4368 261.341 42.4368C260.507 42.4368 259.82 42.1771 259.282 41.6578C258.763 41.1199 258.503 40.4522 258.503 39.6546C258.503 39.3949 258.522 39.1909 258.559 39.0425L262.232 20.2352H253.384L250.713 34.0347C250.157 36.9652 248.979 39.1631 247.18 40.6284C245.4 42.0936 243.109 42.8263 240.308 42.8263C239.585 42.8263 239.001 42.6037 238.555 42.1586C238.092 41.6949 237.86 41.1199 237.86 40.4336C237.86 40.1739 237.878 39.9699 237.916 39.8215Z" fill="url(#paint8_linear_113_2)"/>
<path d="M287.92 25.8551L276.68 39.4877C275.808 40.5449 275.002 41.3054 274.26 41.7691C273.536 42.2142 272.711 42.4368 271.784 42.4368C270.949 42.4368 270.272 42.1864 269.753 41.6856C269.233 41.1663 268.974 40.5078 268.974 39.7103C268.974 39.4877 269.001 39.2466 269.057 38.9869L273.23 17.453C273.416 16.5071 273.898 15.7095 274.677 15.0604C275.474 14.3927 276.346 14.0588 277.292 14.0588C278.127 14.0588 278.795 14.3185 279.295 14.8378C279.815 15.3571 280.074 16.0156 280.074 16.8131C280.074 17.0913 280.056 17.3046 280.019 17.453L277.459 30.6404L288.699 17.0079C289.552 15.9692 290.359 15.218 291.119 14.7543C291.88 14.2906 292.724 14.0588 293.651 14.0588C294.504 14.0588 295.181 14.3185 295.682 14.8378C296.183 15.3571 296.433 16.0248 296.433 16.8409C296.433 17.1377 296.415 17.3603 296.378 17.5087L292.149 39.0425C291.963 39.9885 291.481 40.7953 290.702 41.463C289.942 42.1122 289.088 42.4368 288.143 42.4368C287.308 42.4368 286.622 42.1771 286.084 41.6578C285.564 41.1199 285.305 40.4522 285.305 39.6546C285.305 39.3949 285.323 39.1909 285.36 39.0425L287.92 25.8551Z" fill="white"/>
<path d="M287.92 25.8551L276.68 39.4877C275.808 40.5449 275.002 41.3054 274.26 41.7691C273.536 42.2142 272.711 42.4368 271.784 42.4368C270.949 42.4368 270.272 42.1864 269.753 41.6856C269.233 41.1663 268.974 40.5078 268.974 39.7103C268.974 39.4877 269.001 39.2466 269.057 38.9869L273.23 17.453C273.416 16.5071 273.898 15.7095 274.677 15.0604C275.474 14.3927 276.346 14.0588 277.292 14.0588C278.127 14.0588 278.795 14.3185 279.295 14.8378C279.815 15.3571 280.074 16.0156 280.074 16.8131C280.074 17.0913 280.056 17.3046 280.019 17.453L277.459 30.6404L288.699 17.0079C289.552 15.9692 290.359 15.218 291.119 14.7543C291.88 14.2906 292.724 14.0588 293.651 14.0588C294.504 14.0588 295.181 14.3185 295.682 14.8378C296.183 15.3571 296.433 16.0248 296.433 16.8409C296.433 17.1377 296.415 17.3603 296.378 17.5087L292.149 39.0425C291.963 39.9885 291.481 40.7953 290.702 41.463C289.942 42.1122 289.088 42.4368 288.143 42.4368C287.308 42.4368 286.622 42.1771 286.084 41.6578C285.564 41.1199 285.305 40.4522 285.305 39.6546C285.305 39.3949 285.323 39.1909 285.36 39.0425L287.92 25.8551Z" fill="url(#paint9_linear_113_2)"/>
<path d="M301.343 27.8583L303.958 8.93963L304.403 6.43569C304.57 5.47121 305.071 4.64584 305.905 3.95957C306.759 3.27331 307.667 2.93018 308.632 2.93018C309.466 2.93018 310.143 3.19912 310.663 3.737C311.201 4.25634 311.47 4.92405 311.47 5.74015C311.47 6.03692 311.451 6.26876 311.414 6.43569L310.969 8.93963L306.128 27.8583C305.961 28.5445 305.609 29.1195 305.071 29.5832C304.533 30.0284 303.939 30.2509 303.29 30.2509C302.697 30.2509 302.214 30.0655 301.843 29.6945C301.491 29.3235 301.315 28.8506 301.315 28.2756C301.315 28.0901 301.324 27.951 301.343 27.8583ZM300.953 42.4368C300.137 42.4368 299.469 42.1771 298.95 41.6578C298.431 41.1384 298.171 40.4893 298.171 39.7103C298.171 39.5619 298.189 39.3579 298.227 39.0982L298.393 38.1523C298.56 37.2434 299.043 36.4644 299.84 35.8152C300.638 35.1475 301.491 34.8137 302.4 34.8137C303.197 34.8137 303.847 35.0641 304.347 35.5648C304.867 36.0656 305.126 36.7055 305.126 37.4845C305.126 37.6329 305.108 37.8555 305.071 38.1523L304.904 39.0982C304.737 40.007 304.264 40.7953 303.485 41.463C302.724 42.1122 301.88 42.4368 300.953 42.4368Z" fill="white"/>
<path d="M301.343 27.8583L303.958 8.93963L304.403 6.43569C304.57 5.47121 305.071 4.64584 305.905 3.95957C306.759 3.27331 307.667 2.93018 308.632 2.93018C309.466 2.93018 310.143 3.19912 310.663 3.737C311.201 4.25634 311.47 4.92405 311.47 5.74015C311.47 6.03692 311.451 6.26876 311.414 6.43569L310.969 8.93963L306.128 27.8583C305.961 28.5445 305.609 29.1195 305.071 29.5832C304.533 30.0284 303.939 30.2509 303.29 30.2509C302.697 30.2509 302.214 30.0655 301.843 29.6945C301.491 29.3235 301.315 28.8506 301.315 28.2756C301.315 28.0901 301.324 27.951 301.343 27.8583ZM300.953 42.4368C300.137 42.4368 299.469 42.1771 298.95 41.6578C298.431 41.1384 298.171 40.4893 298.171 39.7103C298.171 39.5619 298.189 39.3579 298.227 39.0982L298.393 38.1523C298.56 37.2434 299.043 36.4644 299.84 35.8152C300.638 35.1475 301.491 34.8137 302.4 34.8137C303.197 34.8137 303.847 35.0641 304.347 35.5648C304.867 36.0656 305.126 36.7055 305.126 37.4845C305.126 37.6329 305.108 37.8555 305.071 38.1523L304.904 39.0982C304.737 40.007 304.264 40.7953 303.485 41.463C302.724 42.1122 301.88 42.4368 300.953 42.4368Z" fill="url(#paint10_linear_113_2)"/>
</g>
<defs>
<linearGradient id="paint0_linear_113_2" x1="175.655" y1="5.19246" x2="177.46" y2="59.4624" gradientUnits="userSpaceOnUse">
<stop offset="0.122713" stop-color="#E2E8FC"/>
<stop offset="1" stop-color="#FFFFD4"/>
</linearGradient>
<linearGradient id="paint1_linear_113_2" x1="175.655" y1="5.19246" x2="177.46" y2="59.4624" gradientUnits="userSpaceOnUse">
<stop offset="0.122713" stop-color="#E2E8FC"/>
<stop offset="1" stop-color="#FFFFD4"/>
</linearGradient>
<linearGradient id="paint2_linear_113_2" x1="175.655" y1="5.19246" x2="177.46" y2="59.4624" gradientUnits="userSpaceOnUse">
<stop offset="0.122713" stop-color="#E2E8FC"/>
<stop offset="1" stop-color="#FFFFD4"/>
</linearGradient>
<linearGradient id="paint3_linear_113_2" x1="175.655" y1="5.19246" x2="177.46" y2="59.4624" gradientUnits="userSpaceOnUse">
<stop offset="0.122713" stop-color="#E2E8FC"/>
<stop offset="1" stop-color="#FFFFD4"/>
</linearGradient>
<linearGradient id="paint4_linear_113_2" x1="175.655" y1="5.19246" x2="177.46" y2="59.4624" gradientUnits="userSpaceOnUse">
<stop offset="0.122713" stop-color="#E2E8FC"/>
<stop offset="1" stop-color="#FFFFD4"/>
</linearGradient>
<linearGradient id="paint5_linear_113_2" x1="175.655" y1="5.19246" x2="177.46" y2="59.4624" gradientUnits="userSpaceOnUse">
<stop offset="0.122713" stop-color="#E2E8FC"/>
<stop offset="1" stop-color="#FFFFD4"/>
</linearGradient>
<linearGradient id="paint6_linear_113_2" x1="175.655" y1="5.19246" x2="177.46" y2="59.4624" gradientUnits="userSpaceOnUse">
<stop offset="0.122713" stop-color="#E2E8FC"/>
<stop offset="1" stop-color="#FFFFD4"/>
</linearGradient>
<linearGradient id="paint7_linear_113_2" x1="175.655" y1="5.19246" x2="177.46" y2="59.4624" gradientUnits="userSpaceOnUse">
<stop offset="0.122713" stop-color="#E2E8FC"/>
<stop offset="1" stop-color="#FFFFD4"/>
</linearGradient>
<linearGradient id="paint8_linear_113_2" x1="175.655" y1="5.19246" x2="177.46" y2="59.4624" gradientUnits="userSpaceOnUse">
<stop offset="0.122713" stop-color="#E2E8FC"/>
<stop offset="1" stop-color="#FFFFD4"/>
</linearGradient>
<linearGradient id="paint9_linear_113_2" x1="175.655" y1="5.19246" x2="177.46" y2="59.4624" gradientUnits="userSpaceOnUse">
<stop offset="0.122713" stop-color="#E2E8FC"/>
<stop offset="1" stop-color="#FFFFD4"/>
</linearGradient>
<linearGradient id="paint10_linear_113_2" x1="175.655" y1="5.19246" x2="177.46" y2="59.4624" gradientUnits="userSpaceOnUse">
<stop offset="0.122713" stop-color="#E2E8FC"/>
<stop offset="1" stop-color="#FFFFD4"/>
</linearGradient>
<clipPath id="clip0_113_2">
<rect width="318.519" height="61.6367" fill="white"/>
</clipPath>
</defs>
</svg>
